<svg width="190" height="62" viewBox="0 0 190 62" fill="none" xmlns="http://www.w3.org/2000/svg">
<path d="M32.6875 22.0273L27.8242 24.9863L27.7656 24.8105C27.2578 23.8145 26.6426 22.9258 25.9199 22.1445C25.1973 21.3438 24.3867 20.6699 23.4883 20.123C22.5898 19.5566 21.623 19.127 20.5879 18.834C19.5723 18.541 18.5078 18.3945 17.3945 18.3945C15.793 18.3945 14.2891 18.6973 12.8828 19.3027C11.4961 19.9082 10.2754 20.7383 9.2207 21.793C8.18555 22.8477 7.36523 24.0879 6.75977 25.5137C6.1543 26.9199 5.85156 28.4238 5.85156 30.0254C5.85156 31.6074 6.1543 33.1016 6.75977 34.5078C7.36523 35.9141 8.18555 37.1445 9.2207 38.1992C10.2754 39.2539 11.4961 40.084 12.8828 40.6895C14.2891 41.2949 15.793 41.5977 17.3945 41.5977C18.4297 41.5977 19.4355 41.4609 20.4121 41.1875C21.3887 40.9141 22.3066 40.5332 23.166 40.0449C24.0449 39.5371 24.8457 38.9316 25.5684 38.2285C26.291 37.5059 26.9062 36.7051 27.4141 35.8262L27.5312 35.6504L32.6289 38.5508L32.5703 38.7266C31.8086 39.9961 30.8809 41.1387 29.7871 42.1543C28.6934 43.1699 27.4824 44.0391 26.1543 44.7617C24.8457 45.5039 23.4395 46.0703 21.9355 46.4609C20.4512 46.8516 18.9375 47.0469 17.3945 47.0469C15.1875 47.0469 13.0488 46.6172 10.9785 45.7578C8.92773 44.8984 7.0918 43.707 5.4707 42.1836C3.86914 40.6602 2.58008 38.8633 1.60352 36.793C0.646484 34.7227 0.167969 32.4668 0.167969 30.0254C0.167969 28.5605 0.363281 27.125 0.753906 25.7188C1.16406 24.293 1.73047 22.9453 2.45312 21.6758C3.19531 20.4062 4.08398 19.2344 5.11914 18.1602C6.17383 17.0859 7.33594 16.168 8.60547 15.4062C9.875 14.625 11.252 14.0195 12.7363 13.5898C14.2207 13.1406 15.7734 12.916 17.3945 12.916C19.0938 12.916 20.7051 13.1211 22.2285 13.5312C23.7715 13.9414 25.1973 14.5371 26.5059 15.3184C27.8145 16.0801 28.9863 17.0176 30.0215 18.1309C31.0566 19.2441 31.9258 20.5039 32.6289 21.9102L32.6875 22.0273Z" fill="white"/>
<path d="M67.9316 29.791C67.9316 32.252 67.5215 34.5273 66.7012 36.6172C65.8809 38.707 64.7578 40.5234 63.332 42.0664C61.9062 43.6094 60.2363 44.8105 58.3223 45.6699C56.4082 46.5488 54.3672 46.9883 52.1992 46.9883C50.0312 46.9883 48 46.5781 46.1055 45.7578C44.2109 44.9375 42.5508 43.7754 41.125 42.2715C39.7188 40.748 38.6055 38.9316 37.7852 36.8223C36.9648 34.7129 36.5547 32.3691 36.5547 29.791C36.5547 27.1934 36.9648 24.8398 37.7852 22.7305C38.6055 20.6016 39.7188 18.7852 41.125 17.2812C42.5508 15.7773 44.2109 14.6152 46.1055 13.7949C48 12.9746 50.0312 12.5645 52.1992 12.5645C54.3672 12.5645 56.4082 13.0039 58.3223 13.8828C60.2363 14.7422 61.9062 15.9434 63.332 17.4863C64.7578 19.0098 65.8809 20.8262 66.7012 22.9355C67.5215 25.0254 67.9316 27.3105 67.9316 29.791ZM61.75 29.7324C61.75 28.3262 61.5742 26.9102 61.2227 25.4844C60.8711 24.0391 60.3145 22.75 59.5527 21.6172C58.791 20.4648 57.8047 19.5273 56.5938 18.8047C55.3828 18.082 53.918 17.7207 52.1992 17.7207C50.5391 17.7207 49.1133 18.082 47.9219 18.8047C46.7305 19.5273 45.7539 20.4648 44.9922 21.6172C44.2305 22.75 43.6738 24.0391 43.3223 25.4844C42.9707 26.9102 42.7949 28.3262 42.7949 29.7324C42.7949 31.1387 42.9805 32.5547 43.3516 33.9805C43.7422 35.4062 44.3281 36.6953 45.1094 37.8477C45.8906 38.9805 46.8672 39.9082 48.0391 40.6309C49.2305 41.3535 50.6172 41.7148 52.1992 41.7148C53.8594 41.7148 55.2852 41.3535 56.4766 40.6309C57.6875 39.9082 58.6836 38.9805 59.4648 37.8477C60.2461 36.6953 60.8223 35.4062 61.1934 33.9805C61.5645 32.5547 61.75 31.1387 61.75 29.7324Z" fill="white"/>
<path d="M96.5254 27.5059C96.5059 26.5488 96.418 25.7188 96.2617 25.0156C96.125 24.3125 95.9395 23.707 95.7051 23.1992C95.4902 22.6914 95.2363 22.2715 94.9434 21.9395C94.6699 21.6074 94.3867 21.334 94.0938 21.1191C93.4102 20.6309 92.6387 20.3965 91.7793 20.416C91.2324 20.4941 90.6465 20.7285 90.0215 21.1191C89.416 21.4902 88.791 21.9785 88.1465 22.584C87.502 23.1699 86.8477 23.8438 86.1836 24.6055C85.5391 25.3477 84.9141 26.1191 84.3086 26.9199C83.7031 27.7012 83.127 28.4824 82.5801 29.2637C82.0332 30.0449 81.5449 30.7578 81.1152 31.4023C81.1348 32.8672 81.1641 34.3125 81.2031 35.7383C81.2422 37.1445 81.2715 38.4629 81.291 39.6934C81.3301 40.9043 81.3691 42.0078 81.4082 43.0039C81.4668 43.9805 81.5254 44.7715 81.584 45.377L75.2852 46.168C75.168 42.8086 75.0605 39.7715 74.9629 37.0566C74.8652 34.3223 74.7773 31.8809 74.6992 29.7324C74.6211 27.584 74.5527 25.6895 74.4941 24.0488C74.4551 22.4082 74.416 20.9922 74.377 19.8008C74.2988 17.0078 74.2402 14.9375 74.2012 13.5898L80.8809 13.4727C80.9004 14.6641 80.9102 15.8848 80.9102 17.1348C80.9297 18.3652 80.9492 19.498 80.9688 20.5332C80.9883 21.7441 80.998 22.9258 80.998 24.0781C81.5645 23.1797 82.248 22.1934 83.0488 21.1191C83.8691 20.0449 84.7871 19.0293 85.8027 18.0723C86.8379 17.1152 87.9609 16.2852 89.1719 15.582C90.4023 14.8594 91.7109 14.4102 93.0977 14.2344C94.6602 14.1562 96.0859 14.4883 97.375 15.2305C97.9219 15.543 98.459 15.9629 98.9863 16.4902C99.5332 16.998 100.031 17.6621 100.48 18.4824C100.949 19.2832 101.34 20.25 101.652 21.3828C101.965 22.4961 102.18 23.8145 102.297 25.3379L96.5254 27.5059Z" fill="white"/>
<path d="M129.689 46.1094L129.572 37.7012C128.928 38.8535 128.195 39.9473 127.375 40.9824C126.555 41.998 125.666 42.8965 124.709 43.6777C123.752 44.4395 122.727 45.0449 121.633 45.4941C120.559 45.9434 119.426 46.1484 118.234 46.1094C116.477 46.0508 114.963 45.7188 113.693 45.1133C112.443 44.5078 111.389 43.707 110.529 42.7109C109.67 41.6953 108.977 40.5332 108.449 39.2246C107.941 37.8965 107.551 36.5 107.277 35.0352C107.004 33.5703 106.818 32.0762 106.721 30.5527C106.643 29.0098 106.604 27.5156 106.604 26.0703C106.604 24.0391 106.691 21.9883 106.867 19.918C107.043 17.8281 107.297 15.6992 107.629 13.5312L113.635 13.707C113.322 16.1289 113.107 18.3066 112.99 20.2402C112.893 22.1738 112.844 23.873 112.844 25.3379C112.844 26.002 112.854 26.8418 112.873 27.8574C112.893 28.873 112.961 29.957 113.078 31.1094C113.215 32.2422 113.42 33.3652 113.693 34.4785C113.967 35.5918 114.348 36.5879 114.836 37.4668C115.344 38.3262 115.979 38.9902 116.74 39.459C117.502 39.9277 118.439 40.084 119.553 39.9277C121.057 39.7129 122.619 38.6777 124.24 36.8223C125.881 34.9668 127.6 32.1152 129.396 28.2676C129.338 25.1621 129.279 22.6816 129.221 20.8262C129.182 18.9707 129.152 17.5547 129.133 16.5781C129.094 15.4258 129.064 14.625 129.045 14.1758L135.344 13.4727C135.461 16.832 135.559 19.8691 135.637 22.584C135.734 25.2793 135.822 27.7109 135.9 29.8789C135.979 32.0273 136.037 33.9219 136.076 35.5625C136.135 37.1836 136.184 38.5898 136.223 39.7812C136.301 42.5742 136.35 44.6445 136.369 45.9922L129.689 46.1094Z" fill="white"/>
<path d="M152.688 4.94727C152.688 5.51367 152.58 6.05078 152.365 6.55859C152.15 7.06641 151.848 7.50586 151.457 7.87695C151.086 8.24805 150.646 8.54102 150.139 8.75586C149.65 8.9707 149.123 9.07812 148.557 9.07812C147.99 9.07812 147.443 8.9707 146.916 8.75586C146.408 8.54102 145.959 8.24805 145.568 7.87695C145.197 7.50586 144.895 7.06641 144.66 6.55859C144.445 6.05078 144.338 5.51367 144.338 4.94727C144.338 4.36133 144.445 3.81445 144.66 3.30664C144.895 2.79883 145.197 2.35938 145.568 1.98828C145.959 1.59766 146.408 1.29492 146.916 1.08008C147.443 0.845703 147.99 0.728516 148.557 0.728516C149.123 0.728516 149.65 0.845703 150.139 1.08008C150.646 1.29492 151.086 1.59766 151.457 1.98828C151.848 2.35938 152.15 2.79883 152.365 3.30664C152.58 3.81445 152.688 4.36133 152.688 4.94727ZM151.076 15.377C151.037 18.3848 150.998 21.1191 150.959 23.5801C150.939 26.0215 150.92 28.2383 150.9 30.2305C150.9 32.2031 150.891 33.9512 150.871 35.4746C150.852 36.998 150.842 38.3262 150.842 39.459C150.822 42.1152 150.812 44.1465 150.812 45.5527C150.793 46.5879 150.705 47.6914 150.549 48.8633C150.412 50.0547 150.139 51.2266 149.729 52.3789C149.318 53.5508 148.752 54.6738 148.029 55.748C147.326 56.8223 146.398 57.7695 145.246 58.5898C144.094 59.4102 142.697 60.0547 141.057 60.5234C139.436 61.0117 137.512 61.2461 135.285 61.2266L135.637 54.6055C136.75 54.7227 137.736 54.6738 138.596 54.459C139.436 54.2637 140.168 53.9609 140.793 53.5508C141.438 53.1406 141.984 52.6523 142.434 52.0859C142.883 51.5391 143.254 50.9629 143.547 50.3574C144.23 48.9512 144.641 47.3105 144.777 45.4355C144.816 43.3457 144.855 40.8262 144.895 37.877C144.934 35.3379 144.963 32.1836 144.982 28.4141C145.002 24.6445 145.012 20.2207 145.012 15.1426L151.076 15.377Z" fill="white"/>
<path d="M182.512 45.8457L182.922 41.7148C180.539 43.2383 178.195 44.3418 175.891 45.0254C173.605 45.709 171.467 46.0508 169.475 46.0508C168.068 46.0508 166.701 45.8652 165.373 45.4941C164.064 45.1426 162.902 44.5957 161.887 43.8535C160.891 43.0918 160.08 42.1348 159.455 40.9824C158.85 39.8105 158.547 38.4336 158.547 36.8516C158.547 35.2695 158.781 33.8535 159.25 32.6035C159.719 31.3535 160.363 30.25 161.184 29.293C162.004 28.3359 162.971 27.5156 164.084 26.832C165.197 26.1484 166.389 25.5918 167.658 25.1621C168.947 24.7324 170.295 24.4199 171.701 24.2246C173.107 24.0098 174.504 23.9023 175.891 23.9023C177.18 23.9023 178.381 23.9512 179.494 24.0488C180.607 24.1465 181.594 24.2734 182.453 24.4297C182.199 23.4531 181.887 22.4961 181.516 21.5586C181.145 20.6016 180.666 19.752 180.08 19.0098C179.514 18.248 178.811 17.6328 177.971 17.1641C177.131 16.6953 176.125 16.4609 174.953 16.4609C174.191 16.4609 173.322 16.5781 172.346 16.8125C171.369 17.0273 170.295 17.4277 169.123 18.0137C167.951 18.5996 166.672 19.4102 165.285 20.4453C163.898 21.4609 162.414 22.7695 160.832 24.3711L157.287 20.0645C159.162 18.3066 160.959 16.8711 162.678 15.7578C164.396 14.6445 166.008 13.7754 167.512 13.1504C169.035 12.5059 170.441 12.0664 171.73 11.832C173.039 11.5977 174.211 11.4805 175.246 11.4805C177.043 11.4805 178.645 11.793 180.051 12.418C181.457 13.0234 182.688 13.8633 183.742 14.9375C184.816 15.9922 185.715 17.2422 186.438 18.6875C187.18 20.1133 187.785 21.6562 188.254 23.3164C188.723 24.957 189.055 26.666 189.25 28.4434C189.465 30.2207 189.572 31.9883 189.572 33.7461C189.572 35.6211 189.465 37.6328 189.25 39.7812C189.035 41.9297 188.703 44.2734 188.254 46.8125L182.512 45.8457ZM183.332 35.1816C183.371 34.2051 183.4 33.2383 183.42 32.2812C183.439 31.3242 183.391 30.3281 183.273 29.293C182.316 29 181.311 28.7656 180.256 28.5898C179.201 28.4141 178.146 28.3262 177.092 28.3262C175.334 28.3262 173.625 28.5312 171.965 28.9414C170.324 29.3516 168.908 29.9473 167.717 30.7285C166.525 31.5098 165.627 32.4668 165.021 33.5996C164.436 34.7324 164.318 36.0215 164.67 37.4668C164.943 38.6387 165.471 39.459 166.252 39.9277C167.053 40.3965 168.01 40.6309 169.123 40.6309C170.256 40.6309 171.477 40.4453 172.785 40.0742C174.113 39.6836 175.422 39.2148 176.711 38.668C178.02 38.1016 179.25 37.5059 180.402 36.8809C181.555 36.2559 182.531 35.6895 183.332 35.1816Z" fill="white"/>
</svg>
