<svg width="204" height="76" viewBox="0 0 204 76" fill="none" xmlns="http://www.w3.org/2000/svg">
<path fill-rule="evenodd" clip-rule="evenodd" d="M44.341 31.0295C43.987 32.2211 43.7525 33.4839 43.6376 34.8179C43.5839 35.4405 43.5563 36.0787 43.5548 36.7324C43.5547 36.7519 43.5547 36.7715 43.5547 36.791C43.5547 37.8498 43.6239 38.869 43.7622 39.8488C43.8941 40.7829 44.0889 41.6811 44.3466 42.5434C44.3542 42.5688 44.3618 42.5941 44.3695 42.6194C44.4938 43.0285 44.6324 43.4294 44.7852 43.8223C45.2532 45.0259 45.8167 46.1341 46.4755 47.1469C46.706 47.5012 46.9481 47.8438 47.2019 48.1748C47.2115 48.1873 47.2211 48.1998 47.2307 48.2122C47.5144 48.5798 47.8124 48.9329 48.125 49.2715C49.3072 50.5185 50.6506 51.5305 52.1551 52.3075C52.1671 52.3137 52.1791 52.3199 52.1912 52.3261C52.4896 52.4792 52.7944 52.6231 53.1055 52.7578C55 53.5781 57.0312 53.9883 59.1992 53.9883C61.3672 53.9883 63.4082 53.5488 65.3223 52.6699C65.6284 52.5325 65.9283 52.3863 66.222 52.2313C66.2334 52.2253 66.2447 52.2193 66.2561 52.2133C67.7845 51.402 69.1431 50.353 70.332 49.0664C70.6224 48.7521 70.9003 48.4265 71.1656 48.0895C71.175 48.0776 71.1844 48.0656 71.1937 48.0537C72.2181 46.7451 73.0539 45.2663 73.7012 43.6172C73.8432 43.2554 73.9729 42.8881 74.0903 42.5153C74.4181 41.4744 74.6501 40.3902 74.7863 39.2626C74.876 38.5201 74.9242 37.7587 74.9308 36.9785C74.9314 36.9162 74.9316 36.8536 74.9316 36.791C74.9316 36.7715 74.9316 36.7519 74.9316 36.7324C74.928 35.3798 74.8022 34.0854 74.5542 32.8492C74.4313 32.2371 74.2785 31.6393 74.0958 31.0558C74.0939 31.0497 74.092 31.0437 74.0901 31.0376C73.9727 30.6644 73.8431 30.2971 73.7012 29.9355C73.0604 28.2879 72.235 26.819 71.2248 25.5289C71.2157 25.5172 71.2066 25.5056 71.1974 25.494C70.9226 25.145 70.6341 24.8091 70.332 24.4863C69.1436 23.2002 67.7856 22.1516 66.2579 21.3404C65.9528 21.1784 65.6409 21.0259 65.3223 20.8828C63.4082 20.0039 61.3672 19.5645 59.1992 19.5645C57.0312 19.5645 55 19.9746 53.1055 20.7949C52.7822 20.9349 52.4657 21.0849 52.156 21.2448C50.6511 22.0218 49.3075 23.034 48.125 24.2812C47.7965 24.6326 47.484 25.001 47.1874 25.3864C47.1781 25.3985 47.1688 25.4106 47.1596 25.4227C46.8632 25.8104 46.5828 26.2152 46.3186 26.6371C45.7268 27.5822 45.2156 28.6133 44.7852 29.7305C44.6229 30.1477 44.4767 30.5745 44.3465 31.0109C44.3447 31.0171 44.3428 31.0233 44.341 31.0295ZM50.3223 32.4844C50.367 32.3003 50.4151 32.1189 50.4665 31.9399C50.4683 31.9338 50.47 31.9277 50.4718 31.9216C50.824 30.7023 51.3308 29.6009 51.9922 28.6172C52.083 28.4799 52.1768 28.3456 52.2736 28.2144C52.2815 28.2038 52.2894 28.1932 52.2972 28.1826C53.0091 27.2269 53.8839 26.4343 54.9219 25.8047C55.0146 25.7484 55.1088 25.6944 55.2044 25.6425C56.3367 25.028 57.6683 24.7207 59.1992 24.7207C60.7219 24.7207 62.0452 25.0043 63.1693 25.5714C63.1823 25.578 63.1953 25.5846 63.2083 25.5912C63.3395 25.6585 63.468 25.7296 63.5938 25.8047C64.6658 26.4444 65.5617 27.2526 66.2817 28.229C66.2887 28.2385 66.2956 28.248 66.3026 28.2575C66.3885 28.375 66.4719 28.4949 66.5527 28.6172C67.247 29.6497 67.7709 30.8121 68.1245 32.1043C68.1261 32.1104 68.1278 32.1165 68.1295 32.1226C68.162 32.2421 68.1931 32.3627 68.2227 32.4844C68.5742 33.9102 68.75 35.3262 68.75 36.7324C68.75 36.752 68.75 36.7715 68.7499 36.791C68.7448 38.178 68.5593 39.5745 68.1934 40.9805C68.1559 41.1246 68.1163 41.2673 68.0746 41.4086C67.7037 42.6654 67.1671 43.8118 66.4648 44.8477C66.3742 44.9791 66.2807 45.1077 66.1842 45.2337C65.4496 46.193 64.547 46.992 63.4766 47.6309C63.3679 47.6968 63.2572 47.7597 63.1446 47.8196C63.1313 47.8267 63.1181 47.8337 63.1048 47.8407C61.9919 48.4235 60.6901 48.7148 59.1992 48.7148C57.7174 48.7148 56.4069 48.3978 55.2678 47.7638C55.1908 47.721 55.1145 47.6766 55.0391 47.6309C54.0246 47.0053 53.1566 46.2261 52.4349 45.2932C52.4188 45.2725 52.4029 45.2517 52.387 45.2308C52.2919 45.1058 52.1993 44.9781 52.1094 44.8477C51.4405 43.8611 50.9148 42.7743 50.5323 41.5873C50.468 41.3878 50.4078 41.1856 50.3516 40.9805C49.9856 39.5745 49.8001 38.178 49.795 36.791C49.795 36.7715 49.7949 36.752 49.7949 36.7324C49.7949 35.3262 49.9707 33.9102 50.3223 32.4844ZM57.8866 40.8947C58.1049 41.2059 58.3555 41.4457 58.6766 41.6497C58.6782 41.6505 58.6801 41.6513 58.6824 41.6523C58.6891 41.6551 58.7063 41.6618 58.7377 41.67C58.7985 41.6859 58.9427 41.7148 59.1992 41.7148C59.5225 41.7148 59.71 41.6797 59.7941 41.6584C59.8279 41.6498 59.8479 41.6428 59.8571 41.6392L59.8678 41.6328L59.8894 41.6199C60.2504 41.4044 60.4939 41.17 60.6879 40.8942C60.9883 40.445 61.2405 39.9032 61.4191 39.2173C61.6474 38.3398 61.75 37.516 61.75 36.7324C61.75 35.9154 61.6486 35.0619 61.4262 34.1602L61.4236 34.1495L61.421 34.1388C61.2473 33.4247 61.0046 32.911 60.7438 32.5232L60.7284 32.5003L60.7132 32.4772C60.5448 32.2225 60.3373 32.0143 60.0138 31.82C60.0021 31.815 59.97 31.8027 59.9105 31.788C59.7964 31.7599 59.5704 31.7207 59.1992 31.7207C58.8759 31.7207 58.6885 31.7559 58.6044 31.7772C58.5707 31.7857 58.5508 31.7927 58.5414 31.7963C58.2321 31.9858 58.0158 32.1987 57.8317 32.4772L57.8165 32.5003L57.8011 32.5232C57.5403 32.911 57.2976 33.4247 57.1239 34.1388L57.1213 34.1495L57.1187 34.1602C56.8964 35.0619 56.7949 35.9154 56.7949 36.7324C56.7949 37.5025 56.894 38.3114 57.1142 39.1719C57.31 39.8713 57.5756 40.4302 57.8866 40.8947ZM58.5354 31.7989C58.5345 31.7993 58.5351 31.7989 58.5376 31.7978C58.5366 31.7983 58.5359 31.7987 58.5354 31.7989ZM60.0179 31.8219C60.02 31.8229 60.0191 31.8226 60.0158 31.8209C60.0167 31.8213 60.0174 31.8216 60.0179 31.8219ZM42.1992 20.4197C42.4609 20.1065 42.7318 19.8 43.012 19.5003L43.0285 19.4827L43.0451 19.4652C45.1182 17.2785 47.5594 15.5683 50.3241 14.3712C53.1404 13.1518 56.1233 12.5645 59.1992 12.5645C62.335 12.5645 65.3662 13.2051 68.2159 14.5088C70.4032 15.4942 72.3837 16.7977 74.1348 18.4024L73.999 13.7151L94.765 13.3508L94.7997 15.4624C96.2059 14.8792 97.6829 14.4845 99.2174 14.2899L99.4818 14.2564L99.7481 14.2431C102.577 14.1016 105.345 14.714 107.859 16.1592C107.97 16.2226 108.079 16.2873 108.187 16.3534L108.647 13.3532L128.566 13.9362L127.577 21.6028C127.282 23.891 127.086 25.8959 126.98 27.6294C126.887 29.4647 126.844 31.0297 126.844 32.3379C126.844 32.9403 126.853 33.7313 126.872 34.7228C126.887 35.5043 126.939 36.373 127.035 37.3337C127.052 37.4698 127.07 37.6057 127.09 37.7415C127.75 36.7603 128.513 35.446 129.365 33.735C129.318 31.4154 129.271 29.5215 129.224 28.0471L129.223 28.0103L129.222 27.9735C129.184 26.1476 129.155 24.7448 129.135 23.7664C129.097 22.6396 129.069 21.8857 129.052 21.4798L128.767 14.9447L144.407 13.1989C144.361 12.7834 144.338 12.3658 144.338 11.9473C144.338 10.4839 144.611 9.00316 145.213 7.57916L145.257 7.47546L145.304 7.37323C145.862 6.16525 146.626 5.03098 147.619 4.03853C148.631 3.02654 149.814 2.2236 151.131 1.65804C152.519 1.05001 154.013 0.728516 155.557 0.728516C157.068 0.728516 158.582 1.03787 160.014 1.69721C161.275 2.25196 162.423 3.03538 163.407 4.03806C164.449 5.06074 165.254 6.26071 165.812 7.57916C166.414 9.00316 166.688 10.4839 166.688 11.9473C166.688 13.4246 166.402 14.8916 165.812 16.2861C165.678 16.6033 165.529 16.9137 165.367 17.2163C165.535 17.1031 165.704 16.9919 165.872 16.8826C167.852 15.6 169.833 14.5163 171.804 13.6952C173.678 12.9039 175.578 12.2905 177.478 11.9449L177.487 11.9433L177.496 11.9417C179.104 11.6537 180.7 11.4805 182.246 11.4805C184.846 11.4805 187.428 11.9327 189.856 13.0045C192.047 13.9534 194.009 15.2855 195.692 16.9874C197.323 18.5988 198.642 20.4579 199.672 22.5049C200.637 24.367 201.404 26.3395 201.988 28.4047C202.565 30.4263 202.967 32.5071 203.204 34.6402C203.449 36.6788 203.572 38.7146 203.572 40.7461C203.572 42.8854 203.45 45.1317 203.215 47.4778C202.98 49.8311 202.621 52.3517 202.147 55.032L200.937 61.8679L183.934 59.0052C181.442 59.6757 178.946 60.0508 176.475 60.0508C174.456 60.0508 172.466 59.7848 170.523 59.2452C168.458 58.6866 166.511 57.7874 164.757 56.5053L164.695 56.4603L164.635 56.414C164.604 56.3909 164.574 56.3677 164.544 56.3444C164.529 56.4721 164.512 56.6 164.495 56.7282C164.295 58.4285 163.904 60.0908 163.33 61.707C162.719 63.4473 161.888 65.0874 160.86 66.6214C159.637 68.4782 158.083 70.027 156.306 71.2925C154.4 72.6491 152.263 73.5971 150.027 74.2406C147.571 74.9735 144.928 75.25 142.224 75.2263L134.907 75.1621L135.705 60.1277L129.788 60.2315L129.778 59.5048C128.228 59.961 126.627 60.1588 125.005 60.1056L125.001 60.1055C122.514 60.0226 120.009 59.542 117.68 58.4315L117.661 58.4224L117.642 58.4131C115.581 57.415 113.747 56.0427 112.229 54.2836L112.207 54.2582L112.186 54.2325C110.816 52.6136 109.746 50.7999 108.957 48.841L108.933 48.783L108.911 48.7246C108.245 46.9841 107.743 45.1794 107.396 43.3196C107.233 42.4471 107.097 41.5682 106.987 40.6831L96.7286 44.5365L96.6057 38.5143C96.1539 39.1057 95.7237 39.6936 95.3147 40.2779C95.2597 40.3565 95.2054 40.4342 95.1518 40.5111C95.1658 41.1944 95.182 41.8729 95.2005 42.5466C95.2396 43.9539 95.2692 45.28 95.2892 46.5242C95.3263 47.6702 95.3632 48.7139 95.4 49.6563C95.4545 50.5561 95.5056 51.2296 95.5514 51.7027L96.2068 58.4747L75.5565 61.0679L75.3097 53.9922C73.2863 56.1367 70.9079 57.8311 68.2161 59.0438C65.3664 60.3476 62.3351 60.9883 59.1992 60.9883C56.1233 60.9883 53.1404 60.4009 50.3241 59.1815C47.5594 57.9844 45.1182 56.2742 43.0451 54.0875L43.013 54.0537L42.9814 54.0194C42.797 53.8197 42.6166 53.6171 42.4402 53.4116C42.1522 53.7096 41.8555 54.0004 41.5503 54.2839C40.0377 55.6884 38.3674 56.8886 36.5535 57.8812C34.7149 58.9177 32.7593 59.699 30.7073 60.233C28.6415 60.7758 26.5322 61.0469 24.3945 61.0469C21.2518 61.0469 18.2022 60.4298 15.2949 59.223L15.284 59.2184L15.2731 59.2139C12.4505 58.0311 9.90734 56.3806 7.67699 54.2846L7.66155 54.2701L7.64621 54.2555C5.39564 52.1147 3.60471 49.6036 2.27249 46.7793L2.26093 46.7548L2.24956 46.7302C0.837434 43.6754 0.167969 40.4084 0.167969 37.0254C0.167969 34.9297 0.448562 32.8638 1.00928 30.8452L1.01786 30.8144L1.02673 30.7835C1.58778 28.8332 2.36841 26.9719 3.36967 25.2129L3.38966 25.1778L3.41005 25.1429C4.43672 23.3868 5.66349 21.7714 7.0786 20.3029L7.10128 20.2794L7.12419 20.256C8.57869 18.7746 10.1963 17.4923 11.9705 16.424C13.7751 15.3176 15.7094 14.4719 17.7498 13.8776C19.908 13.2289 22.1321 12.916 24.3945 12.916C26.6574 12.916 28.8801 13.1893 31.0372 13.769C33.1627 14.3349 35.1801 15.1697 37.0609 16.2882C38.9536 17.3943 40.6545 18.7582 42.1478 20.3643C42.165 20.3827 42.1821 20.4012 42.1992 20.4197ZM33.5142 22.3232C33.5114 22.3216 33.5087 22.32 33.5059 22.3184C33.4831 22.3048 33.4604 22.2913 33.4376 22.2778C32.1477 21.5165 30.7447 20.9343 29.2285 20.5312C29.1942 20.522 29.1598 20.5129 29.1254 20.5038C29.1164 20.5015 29.1074 20.4991 29.0984 20.4968C27.6134 20.1096 26.0455 19.916 24.3945 19.916C22.7734 19.916 21.2207 20.1406 19.7363 20.5898C19.0446 20.7901 18.3762 21.0285 17.7311 21.3051C17.7225 21.3088 17.714 21.3124 17.7055 21.3161C16.9756 21.6305 16.2756 21.9939 15.6055 22.4062C14.4293 23.112 13.3453 23.9518 12.3535 24.9258C12.3413 24.9377 12.3292 24.9497 12.3171 24.9616C12.2507 25.0272 12.1847 25.0934 12.1191 25.1602C11.084 26.2344 10.1953 27.4062 9.45312 28.6758C9.15169 29.2053 8.87745 29.7485 8.63038 30.3052C8.62662 30.3137 8.62286 30.3222 8.61911 30.3307C8.27877 31.1007 7.99037 31.8968 7.75391 32.7188C7.36328 34.125 7.16797 35.5605 7.16797 37.0254C7.16797 39.4455 7.63815 41.6832 8.57852 43.7386C8.58682 43.7568 8.59515 43.7749 8.60352 43.793C9.54812 45.7955 10.7851 47.5422 12.3145 49.0331C12.3267 49.045 12.3389 49.0569 12.3511 49.0688C12.3908 49.1072 12.4307 49.1455 12.4707 49.1836C14.023 50.6423 15.7722 51.7967 17.7184 52.6465C17.7269 52.6502 17.7353 52.6539 17.7438 52.6576C17.8217 52.6915 17.8999 52.7249 17.9785 52.7578C20.0488 53.6172 22.1875 54.0469 24.3945 54.0469C25.9224 54.0469 27.4215 53.8554 28.8919 53.4724C28.9064 53.4686 28.921 53.4648 28.9355 53.4609C30.3501 53.0935 31.6783 52.5706 32.9201 51.8921C32.9319 51.8857 32.9437 51.8792 32.9554 51.8727C33.022 51.8362 33.0883 51.7992 33.1543 51.7617C33.6938 51.4682 34.214 51.1504 34.7148 50.8085C35.368 50.3626 35.9884 49.8755 36.5759 49.3473C36.5954 49.3298 36.6149 49.3122 36.6343 49.2945C36.6855 49.2481 36.7364 49.2013 36.7871 49.1543C37.4494 48.5393 38.0509 47.8777 38.5914 47.1696C38.7902 46.9093 38.9806 46.6427 39.1629 46.3698C39.2211 46.2828 39.2784 46.195 39.3348 46.1067C39.3728 46.0474 39.4103 45.9878 39.4475 45.9279C39.4556 45.9148 39.4637 45.9017 39.4718 45.8886C39.493 45.8541 39.5141 45.8196 39.5351 45.785C39.5469 45.7655 39.5586 45.7461 39.5703 45.7266L39.6289 45.5508L34.5312 42.6504L34.4141 42.8262C34.2527 43.1054 34.0805 43.3768 33.8975 43.6403C33.8606 43.6933 33.8234 43.746 33.7857 43.7984C33.5022 44.1922 33.1938 44.568 32.8606 44.9257C32.7652 45.0281 32.6678 45.1291 32.5684 45.2285C31.9339 45.8458 31.2392 46.3879 30.4843 46.8547C30.4564 46.8719 30.4284 46.889 30.4004 46.9061C30.3229 46.9531 30.2448 46.9994 30.166 47.0449C29.3487 47.5093 28.4785 47.8765 27.5552 48.1465C27.5496 48.1482 27.5439 48.1498 27.5383 48.1515C27.4964 48.1637 27.4543 48.1757 27.4121 48.1875C26.4355 48.4609 25.4297 48.5977 24.3945 48.5977C22.8636 48.5977 21.422 48.3211 20.0696 47.7678C20.0639 47.7655 20.0583 47.7632 20.0527 47.7609C19.9959 47.7376 19.9393 47.7138 19.8828 47.6895C18.5051 47.0879 17.2912 46.2647 16.2412 45.2197C16.2344 45.2129 16.2275 45.2061 16.2207 45.1992C16.2197 45.1982 16.2188 45.1973 16.2178 45.1963C15.184 44.1422 14.3647 42.9128 13.7598 41.5078C13.748 41.4804 13.7363 41.453 13.7248 41.4256C13.7191 41.4122 13.7135 41.3987 13.7079 41.3853C13.137 40.0148 12.8516 38.5615 12.8516 37.0254C12.8516 36.0749 12.9582 35.1589 13.1714 34.2772C13.1755 34.2605 13.1796 34.2437 13.1837 34.227C13.3284 33.6406 13.5204 33.0695 13.7598 32.5137C13.9107 32.1582 14.0751 31.8142 14.2528 31.4817C14.2629 31.4628 14.273 31.444 14.2832 31.4252C14.7668 30.5315 15.3478 29.7218 16.0261 28.9961C16.0378 28.9837 16.0494 28.9712 16.0611 28.9588C16.1137 28.903 16.1669 28.8478 16.2207 28.793C16.8832 28.1305 17.6111 27.5567 18.4046 27.0714C18.422 27.0608 18.4394 27.0502 18.4568 27.0397C18.9108 26.7652 19.3862 26.5196 19.8828 26.3027C20.3287 26.1108 20.7843 25.9492 21.2498 25.8181C21.2709 25.8122 21.2921 25.8063 21.3132 25.8005C22.2967 25.5298 23.3238 25.3945 24.3945 25.3945C25.5078 25.3945 26.5723 25.541 27.5879 25.834C27.654 25.8527 27.7198 25.8719 27.7853 25.8918C27.7909 25.8935 27.7966 25.8952 27.8022 25.8969C28.7568 26.1872 29.6521 26.5959 30.4883 27.123C30.5248 27.1452 30.5611 27.1677 30.5973 27.1903C30.615 27.2014 30.6328 27.2125 30.6505 27.2238C31.4443 27.7265 32.1679 28.3307 32.8211 29.0364C32.8542 29.0722 32.8872 29.1082 32.9199 29.1445C33.1356 29.3777 33.3417 29.6204 33.5382 29.8727C33.9174 30.3595 34.2611 30.882 34.5691 31.4401C34.5902 31.4783 34.6111 31.5166 34.6318 31.5552C34.6772 31.6395 34.7218 31.7246 34.7656 31.8105L34.8242 31.9863L39.6875 29.0273L39.6289 28.9102C39.3705 28.3933 39.0896 27.8963 38.7864 27.419C38.7803 27.4095 38.7743 27.4 38.7683 27.3906C38.6491 27.2039 38.5265 27.0203 38.4005 26.8398C38.3082 26.7075 38.2141 26.5769 38.1181 26.4479C37.8223 26.0504 37.5089 25.6684 37.1781 25.3018C37.1623 25.2843 37.1465 25.2669 37.1307 25.2495C37.0945 25.2098 37.0581 25.1702 37.0215 25.1309C36.4767 24.5449 35.894 24.0077 35.2734 23.5191C34.7174 23.0814 34.131 22.6828 33.5142 22.3232ZM29.3729 37.7684L28.324 34.6216C28.1515 34.3387 27.9694 34.1013 27.7812 33.8978L27.752 33.8662L27.7232 33.8343C27.4427 33.5235 27.1536 33.2881 26.8487 33.1024L26.8017 33.0738L26.7552 33.0445C26.431 32.8401 26.0805 32.6823 25.6816 32.5694L25.6647 32.5646L25.6478 32.5597C25.2955 32.4581 24.8864 32.3945 24.3945 32.3945C23.7076 32.3945 23.1547 32.5177 22.6667 32.7254C22.0883 32.9802 21.6115 33.3073 21.194 33.7193C20.8114 34.1147 20.4772 34.6038 20.2029 35.2498L20.1961 35.2659L20.1892 35.2819C19.9774 35.7736 19.8516 36.3311 19.8516 37.0254C19.8516 37.6879 19.9728 38.237 20.1892 38.7396C20.4601 39.3689 20.796 39.8619 21.1938 40.2727C21.6113 40.6848 22.0882 41.0119 22.6667 41.2668C23.1547 41.4745 23.7076 41.5977 24.3945 41.5977C24.805 41.5977 25.1752 41.5446 25.5247 41.4468C25.9583 41.3253 26.3404 41.1652 26.6863 40.9709C27.0439 40.7621 27.3623 40.5217 27.652 40.245C27.9306 39.9611 28.1606 39.6572 28.353 39.3242L28.4653 39.13L29.3729 37.7684ZM100.731 34.0551C100.741 34.0495 100.741 34.0493 100.731 34.0551ZM195.254 53.8125C195.277 53.682 195.3 53.5521 195.322 53.4226C195.412 52.903 195.498 52.3917 195.578 51.8887C195.719 51.0047 195.844 50.1465 195.954 49.3138C196.065 48.4766 196.16 47.6653 196.24 46.88C196.243 46.847 196.247 46.8141 196.25 46.7812C196.252 46.7586 196.255 46.736 196.257 46.7133C196.405 45.2193 196.501 43.7916 196.545 42.4301C196.563 41.857 196.572 41.2957 196.572 40.7461C196.572 40.4434 196.569 40.1404 196.563 39.8371C196.56 39.6936 196.556 39.55 196.552 39.4064C196.52 38.3742 196.451 37.3386 196.345 36.2997C196.322 36.0713 196.297 35.8428 196.27 35.6141C196.264 35.5572 196.257 35.5003 196.25 35.4434C196.063 33.7373 195.749 32.0941 195.31 30.514C195.291 30.448 195.273 30.3822 195.254 30.3164C195.219 30.1934 195.184 30.0709 195.147 29.9492C194.786 28.7336 194.349 27.5823 193.837 26.4951C193.832 26.483 193.826 26.4709 193.82 26.4588C193.697 26.198 193.569 25.9409 193.438 25.6875C192.889 24.59 192.239 23.605 191.487 22.7328C191.452 22.6926 191.418 22.6527 191.383 22.613C191.177 22.3796 190.963 22.1544 190.742 21.9375C189.802 20.9804 188.723 20.2094 187.504 19.6244C187.355 19.5528 187.204 19.484 187.051 19.418C185.645 18.793 184.043 18.4805 182.246 18.4805C182.15 18.4805 182.052 18.4815 181.953 18.4835C180.991 18.5033 179.917 18.6195 178.73 18.832C178.579 18.8596 178.425 18.8901 178.27 18.9234C178.239 18.93 178.208 18.9368 178.177 18.9436C177.042 19.1947 175.82 19.5969 174.512 20.1504C174.289 20.2428 174.065 20.3404 173.838 20.4435C172.555 21.026 171.196 21.7791 169.763 22.7026C169.735 22.721 169.706 22.7393 169.678 22.7578C169.494 22.8771 169.308 23.0002 169.122 23.1269C169.109 23.136 169.096 23.1452 169.082 23.1544C168.989 23.2182 168.895 23.283 168.801 23.3487C167.58 24.2039 166.32 25.217 165.022 26.3879C164.779 26.6079 164.534 26.8334 164.287 27.0645L167.832 31.3711C167.917 31.2853 168.001 31.2003 168.086 31.1161C168.366 30.836 168.643 30.5651 168.917 30.3036C170.098 29.1781 171.22 28.2253 172.285 27.4453C172.382 27.3728 172.479 27.3013 172.575 27.231C172.687 27.1493 172.798 27.0691 172.908 26.9905C172.915 26.9854 172.922 26.9803 172.929 26.9752C173.003 26.9222 173.077 26.87 173.151 26.8184C174.208 26.0772 175.199 25.4756 176.123 25.0137C176.238 24.9564 176.351 24.901 176.464 24.8473C176.473 24.8426 176.483 24.838 176.493 24.8333C176.89 24.645 177.275 24.4786 177.648 24.3343C177.679 24.3226 177.709 24.311 177.739 24.2996C177.753 24.2945 177.766 24.2895 177.779 24.2845C178.327 24.0791 178.849 23.9218 179.346 23.8125C179.435 23.791 179.524 23.7705 179.611 23.751C179.616 23.7501 179.62 23.7491 179.624 23.7482C180.488 23.5567 181.265 23.4609 181.953 23.4609C182.052 23.4609 182.15 23.4626 182.246 23.4659C183.079 23.4947 183.824 23.6478 184.481 23.9251C184.642 23.993 184.797 24.0683 184.947 24.151C184.955 24.1554 184.963 24.1597 184.971 24.1641C184.981 24.1696 184.99 24.1751 185 24.1806C185.726 24.5903 186.349 25.1102 186.869 25.7403C186.89 25.766 186.911 25.792 186.932 25.8181C186.938 25.8259 186.945 25.8337 186.951 25.8416C186.995 25.8968 187.038 25.9529 187.08 26.0098C187.596 26.6626 188.028 27.3986 188.377 28.2178C188.389 28.2461 188.401 28.2745 188.413 28.303C188.448 28.3874 188.482 28.4725 188.516 28.5586C188.536 28.6103 188.556 28.662 188.576 28.7138C188.921 29.6017 189.213 30.507 189.453 31.4297C189.065 31.3592 188.652 31.2946 188.212 31.236C188.137 31.2261 188.062 31.2164 187.986 31.2068C187.517 31.1476 187.02 31.0949 186.494 31.0488C185.734 30.9822 184.934 30.9383 184.092 30.9171C183.7 30.9073 183.3 30.9023 182.891 30.9023C182.791 30.9023 182.69 30.9029 182.59 30.904C182.548 30.9045 182.505 30.9051 182.462 30.9058C182.281 30.9086 182.1 30.9133 181.919 30.9199C181.155 30.9474 180.388 31.0073 179.617 31.0997C179.476 31.1166 179.335 31.1347 179.193 31.1538C179.029 31.1759 178.865 31.1995 178.701 31.2246C178.409 31.2651 178.12 31.3107 177.833 31.3613C177.829 31.3621 177.825 31.3629 177.82 31.3636C177.06 31.4984 176.317 31.6686 175.591 31.8744C175.574 31.8793 175.557 31.8842 175.54 31.8891C175.243 31.9742 174.949 32.0652 174.658 32.1621C173.681 32.4929 172.75 32.8989 171.865 33.3801C171.601 33.524 171.34 33.6746 171.084 33.832C170.928 33.9281 170.774 34.0269 170.623 34.1283C169.702 34.7489 168.889 35.4704 168.184 36.293C167.75 36.7985 167.366 37.3449 167.031 37.9322C167.018 37.9543 167.006 37.9765 166.993 37.9987C166.71 38.5037 166.462 39.0387 166.25 39.6035C166.175 39.8026 166.107 40.0058 166.044 40.2133C165.713 41.3087 165.547 42.5215 165.547 43.8516C165.547 44.5598 165.608 45.227 165.729 45.853C165.733 45.8718 165.736 45.8905 165.74 45.9092C165.89 46.6598 166.129 47.3509 166.455 47.9824C167.08 49.1348 167.891 50.0918 168.887 50.8535C169.348 51.1908 169.84 51.4877 170.362 51.7443C170.38 51.7533 170.399 51.7622 170.417 51.7711C171.028 52.0669 171.68 52.3079 172.373 52.4941C173.59 52.8342 174.84 53.0185 176.123 53.0469C176.24 53.0495 176.357 53.0508 176.475 53.0508C178 53.0508 179.612 52.8503 181.309 52.4494C181.327 52.4452 181.345 52.441 181.362 52.4368C181.753 52.3436 182.149 52.2398 182.549 52.1254C182.662 52.0929 182.776 52.0596 182.891 52.0254C183.895 51.7274 184.908 51.3495 185.927 50.8919C185.94 50.8863 185.952 50.8806 185.965 50.875C186.931 50.4397 187.903 49.9327 188.883 49.3542C189.228 49.15 189.575 48.9369 189.922 48.7148L189.512 52.8457L195.254 53.8125ZM189.531 42.6743C189.815 42.5043 190.082 42.3401 190.332 42.1816C190.351 41.7008 190.368 41.2222 190.383 40.7461C190.389 40.5303 190.395 40.315 190.401 40.1002C190.408 39.8264 190.414 39.5534 190.42 39.2812C190.424 39.0959 190.425 38.9091 190.424 38.7209C190.418 37.937 190.368 37.1277 190.273 36.293C190.173 36.2622 190.072 36.232 189.97 36.2025C189.912 36.1857 189.854 36.1691 189.795 36.1527C189.622 36.1038 189.446 36.0568 189.27 36.0117C189.064 35.9593 188.857 35.9095 188.647 35.8621C188.193 35.7595 187.729 35.6688 187.256 35.5898C186.874 35.5262 186.492 35.474 186.11 35.4334C185.437 35.3619 184.764 35.3262 184.092 35.3262C183.689 35.3262 183.288 35.3369 182.891 35.3585C181.706 35.4227 180.545 35.5823 179.406 35.8375C179.385 35.8422 179.364 35.8468 179.344 35.8515C179.217 35.8803 179.091 35.9103 178.965 35.9414C177.981 36.1874 177.077 36.5002 176.255 36.8798C176.248 36.883 176.241 36.8862 176.234 36.8895C175.693 37.1402 175.187 37.4199 174.717 37.7285C174.414 37.9274 174.129 38.1377 173.864 38.3593C173.299 38.8313 172.82 39.355 172.427 39.9303C172.28 40.1462 172.145 40.3693 172.021 40.5996C171.852 40.9271 171.722 41.2677 171.631 41.6213C171.452 42.3145 171.424 43.058 171.547 43.8516C171.578 44.0534 171.619 44.2585 171.67 44.4668C171.719 44.6762 171.776 44.8744 171.841 45.0613C171.855 45.1007 171.869 45.1396 171.883 45.178C172.013 45.5251 172.173 45.8314 172.363 46.097C172.389 46.1335 172.415 46.1691 172.442 46.2041C172.672 46.5006 172.942 46.7418 173.252 46.9277C173.426 47.0295 173.607 47.1202 173.795 47.1998C173.812 47.207 173.829 47.214 173.846 47.221C174.514 47.4942 175.273 47.6309 176.123 47.6309C176.239 47.6309 176.356 47.6289 176.475 47.625C177.507 47.5908 178.611 47.4072 179.785 47.0742C180.282 46.928 180.777 46.7708 181.268 46.6027C181.273 46.6013 181.277 46.5998 181.281 46.5984C182.098 46.3185 182.909 46.0084 183.711 45.668C184.86 45.1707 185.948 44.6509 186.977 44.1085C187.12 44.033 187.262 43.9572 187.402 43.8809C188.195 43.4509 188.905 43.0487 189.531 42.6743ZM158.457 14.877C158.848 14.5059 159.15 14.0664 159.365 13.5586C159.58 13.0508 159.688 12.5137 159.688 11.9473C159.688 11.3613 159.58 10.8145 159.365 10.3066C159.15 9.79883 158.848 9.35938 158.457 8.98828C158.086 8.59766 157.646 8.29492 157.139 8.08008C156.65 7.8457 156.123 7.72852 155.557 7.72852C154.99 7.72852 154.443 7.8457 153.916 8.08008C153.408 8.29492 152.959 8.59766 152.568 8.98828C152.197 9.35938 151.895 9.79883 151.66 10.3066C151.445 10.8145 151.338 11.3613 151.338 11.9473C151.338 12.5137 151.445 13.0508 151.66 13.5586C151.895 14.0664 152.197 14.5059 152.568 14.877C152.678 14.9816 152.793 15.08 152.913 15.1722C153.217 15.407 153.551 15.6016 153.916 15.7559C154.443 15.9707 154.99 16.0781 155.557 16.0781C156.123 16.0781 156.65 15.9707 157.139 15.7559C157.399 15.6457 157.642 15.5149 157.866 15.3636C158.079 15.2199 158.276 15.0577 158.457 14.877ZM105.986 23.4902C105.685 23.1892 105.381 22.9231 105.074 22.6921C105.051 22.6752 105.029 22.6585 105.006 22.6419C104.797 22.4887 104.587 22.3515 104.375 22.2305C103.086 21.4883 101.66 21.1562 100.098 21.2344C99.6037 21.297 99.1196 21.3943 98.6454 21.5263C98.4175 21.5898 98.1919 21.6613 97.9685 21.7408C97.3522 21.9601 96.7533 22.2405 96.1719 22.582C95.7397 22.833 95.3188 23.1001 94.909 23.3833C94.7238 23.5113 94.5409 23.6426 94.3603 23.7773C94.3484 23.7862 94.3364 23.7951 94.3245 23.804C94.2219 23.8809 94.12 23.9588 94.0189 24.0378C93.9777 24.0699 93.9367 24.1023 93.8958 24.1348C93.5212 24.4324 93.1568 24.7449 92.8027 25.0723C92.4848 25.3719 92.1764 25.6772 91.8776 25.9883C91.8593 26.0074 91.8409 26.0265 91.8226 26.0457C91.3771 26.5124 90.953 26.992 90.5504 27.4845C90.5484 27.4869 90.5465 27.4893 90.5445 27.4917C90.3755 27.6985 90.2103 27.9077 90.0488 28.1191C89.9336 28.2738 89.8207 28.4265 89.7103 28.5775C89.7086 28.5799 89.7069 28.5823 89.7051 28.5847C89.2562 29.1987 88.8475 29.7827 88.479 30.3364C88.3721 30.497 88.2687 30.655 88.1686 30.8105C88.1512 30.8374 88.134 30.8643 88.1168 30.8911C88.0767 30.9539 88.0371 31.0162 87.998 31.0781C87.998 31.0168 87.998 30.9554 87.998 30.894C87.9979 30.8682 87.9979 30.8424 87.9979 30.8166C87.9965 29.7471 87.9868 28.6527 87.9688 27.5332C87.9684 27.5129 87.968 27.4926 87.9676 27.4722C87.9651 27.3395 87.9626 27.2052 87.9601 27.0693C87.96 27.0633 87.9599 27.0574 87.9598 27.0514C87.9592 27.0169 87.9585 26.9822 87.9579 26.9475C87.9559 26.8383 87.9539 26.7281 87.9519 26.6169C87.9517 26.6063 87.9515 26.5958 87.9513 26.5852C87.9512 26.5752 87.951 26.5652 87.9508 26.5552C87.9506 26.5423 87.9504 26.5294 87.9501 26.5165C87.9368 25.768 87.9235 24.9741 87.9102 24.1348C87.9102 22.8848 87.9004 21.6641 87.8809 20.4727L81.2012 20.5898C81.2266 21.466 81.2602 22.6477 81.3021 24.1348C81.3031 24.1695 81.3041 24.2045 81.3051 24.2396C81.3269 25.0124 81.3508 25.8661 81.377 26.8008C81.3852 27.0529 81.3935 27.3151 81.4018 27.5874C81.4023 27.6046 81.4028 27.6218 81.4033 27.6391C81.4035 27.6451 81.4037 27.6511 81.4039 27.6571C81.434 28.6544 81.4641 29.7849 81.4941 31.0488C81.4945 31.0586 81.4948 31.0684 81.4952 31.0781C81.5067 31.4009 81.5186 31.7335 81.5309 32.0758C81.5683 33.1182 81.6092 34.2514 81.6536 35.4754C81.6684 35.8843 81.6836 36.3033 81.6992 36.7324C81.6999 36.7519 81.7006 36.7715 81.7013 36.791C81.7212 37.3375 81.7417 37.9028 81.7628 38.487C81.775 38.8236 81.7874 39.1664 81.8 39.5155C81.8386 40.588 81.8793 41.7197 81.9219 42.9104C81.9219 42.9112 81.922 42.912 81.922 42.9128C81.9354 43.2882 81.9491 43.6695 81.9629 44.0566C81.9872 44.7325 82.0121 45.4283 82.0376 46.1441C82.0453 46.3583 82.053 46.5744 82.0607 46.7923C82.0619 46.8262 82.0631 46.8602 82.0643 46.8942C82.1026 47.9688 82.1421 49.0868 82.1829 50.248C82.1844 50.291 82.1859 50.3341 82.1874 50.3772C82.2172 51.2242 82.2477 52.0942 82.2788 52.9871C82.2809 53.0473 82.2831 53.1076 82.2852 53.168L88.584 52.377C88.5254 51.7715 88.4668 50.9805 88.4082 50.0039C88.3691 49.0078 88.3301 47.9043 88.291 46.6934C88.2766 45.7875 88.257 44.8339 88.232 43.8327C88.232 43.8322 88.232 43.8317 88.232 43.8311C88.223 43.4729 88.2134 43.1087 88.2031 42.7383C88.1641 41.3125 88.1348 39.8672 88.1152 38.4023C88.3087 38.1121 88.5141 37.808 88.7313 37.4901C88.9965 37.1019 89.2795 36.6931 89.5801 36.2637C90.127 35.4824 90.7031 34.7012 91.3086 33.9199C91.4378 33.749 91.5679 33.5795 91.6989 33.4113C92.1817 32.7912 92.6766 32.1893 93.1836 31.6055C93.3412 31.4247 93.4982 31.249 93.6546 31.0781C93.6917 31.0376 93.7287 30.9974 93.7658 30.9575C93.7781 30.9442 93.7905 30.9309 93.8028 30.9176C94.2034 30.4872 94.6004 30.0895 94.9938 29.7243C95.0447 29.677 95.0956 29.6302 95.1465 29.584C95.4922 29.2592 95.8323 28.9682 96.1667 28.7109C96.1793 28.7012 96.1918 28.6916 96.2043 28.6821C96.4805 28.4714 96.7529 28.2837 97.0215 28.1191C97.6465 27.7285 98.2324 27.4941 98.7793 27.416C98.8463 27.4145 98.9128 27.4145 98.9787 27.4161C98.9897 27.4163 99.0006 27.4166 99.0115 27.417C99.5129 27.4328 99.9833 27.5384 100.423 27.7338C100.607 27.8156 100.785 27.9133 100.959 28.0267C100.978 28.0392 100.997 28.0519 101.016 28.0648C101.022 28.069 101.028 28.0731 101.034 28.0773C101.054 28.091 101.074 28.105 101.094 28.1191C101.109 28.1302 101.124 28.1414 101.139 28.1528C101.174 28.1791 101.208 28.2061 101.243 28.234C101.306 28.2853 101.369 28.3393 101.431 28.3961C101.519 28.4761 101.605 28.5617 101.691 28.6528C101.735 28.6989 101.778 28.7464 101.821 28.7954C101.862 28.8421 101.903 28.8901 101.943 28.9395C102.206 29.2367 102.437 29.6043 102.636 30.0424C102.64 30.051 102.644 30.0596 102.648 30.0683C102.667 30.1112 102.686 30.1549 102.705 30.1992C102.939 30.707 103.125 31.3125 103.262 32.0156C103.316 32.259 103.362 32.5177 103.399 32.7915C103.471 33.3087 103.513 33.8802 103.525 34.5059L109.297 32.3379C109.257 31.8259 109.207 31.3372 109.146 30.8715C109.139 30.8183 109.131 30.7654 109.124 30.7129C109.005 29.8559 108.848 29.0792 108.652 28.3828C108.594 28.1697 108.532 27.9625 108.468 27.7612C108.447 27.6964 108.426 27.6322 108.405 27.5686C108.268 27.1611 108.12 26.7786 107.961 26.4211C107.96 26.4195 107.959 26.4179 107.958 26.4163C107.809 26.0833 107.65 25.772 107.48 25.4824C107.338 25.2221 107.19 24.9776 107.038 24.7487C107.037 24.7477 107.037 24.7466 107.036 24.7455C106.994 24.6821 106.951 24.6199 106.908 24.5589C106.618 24.1477 106.311 23.7915 105.986 23.4902ZM113.865 26.9449C113.721 28.6451 113.637 30.3321 113.612 32.006C113.61 32.1167 113.608 32.2273 113.607 32.3379C113.605 32.5823 113.604 32.8265 113.604 33.0703C113.604 33.6969 113.611 34.3326 113.626 34.9776C113.645 35.8203 113.676 36.6787 113.721 37.5527C113.733 37.7483 113.747 37.9434 113.763 38.138C113.779 38.3412 113.796 38.544 113.816 38.7462C113.819 38.7854 113.823 38.8246 113.827 38.8638C113.933 39.9358 114.083 40.9929 114.277 42.0352C114.338 42.3619 114.405 42.6852 114.478 43.0051C114.731 44.1196 115.055 45.1927 115.449 46.2246C115.648 46.7185 115.871 47.1916 116.117 47.6438C116.145 47.6949 116.173 47.7456 116.202 47.7961C116.588 48.4837 117.031 49.1219 117.529 49.7109C118.312 50.6181 119.257 51.3633 120.363 51.9465C120.472 52.0036 120.582 52.0592 120.693 52.1133C121.963 52.7188 123.477 53.0508 125.234 53.1094C125.976 53.1337 126.695 53.0634 127.391 52.8986C127.396 52.8975 127.4 52.8963 127.405 52.8952C127.823 52.7955 128.232 52.6618 128.633 52.4941C128.987 52.3487 129.334 52.187 129.673 52.0088C130.383 51.6366 131.062 51.1929 131.709 50.6777C132.666 49.8965 133.555 48.998 134.375 47.9824C134.591 47.7095 134.801 47.4326 135.005 47.1515C135.011 47.1434 135.017 47.1353 135.023 47.1272C135.43 46.5647 135.813 45.9859 136.172 45.3908C136.309 45.1633 136.442 44.9334 136.572 44.7012L136.689 53.089L136.689 53.1094L143.369 52.9922C143.364 52.6588 143.358 52.2811 143.349 51.8592C143.324 50.5758 143.281 48.8832 143.223 46.7812C143.214 46.5285 143.206 46.2662 143.196 45.9941C143.182 45.5575 143.166 45.096 143.149 44.6095C143.127 43.9702 143.102 43.2878 143.076 42.5625C143.043 41.1637 142.995 39.5804 142.934 37.8126C142.923 37.5069 142.912 37.1956 142.9 36.8789C142.88 36.3189 142.859 35.7413 142.838 35.146C142.776 33.4371 142.709 31.583 142.637 29.584C142.619 28.9699 142.6 28.3393 142.581 27.6923C142.58 27.67 142.579 27.6477 142.579 27.6254C142.577 27.5805 142.576 27.5355 142.575 27.4904C142.535 26.2083 142.492 24.8621 142.445 23.4519C142.444 23.4227 142.443 23.3935 142.442 23.3642C142.416 22.5638 142.388 21.7428 142.359 20.9013C142.354 20.759 142.349 20.6161 142.344 20.4727L136.045 21.1758C136.064 21.625 136.094 22.4258 136.133 23.5781C136.152 24.5547 136.182 25.9707 136.221 27.8262C136.239 28.411 136.258 29.058 136.276 29.767C136.277 29.7828 136.277 29.7986 136.277 29.8144C136.286 30.1439 136.294 30.4867 136.303 30.8428C136.334 32.1409 136.365 33.6159 136.396 35.2676C136.223 35.6399 136.049 36.0029 135.877 36.3566C134.682 38.8078 133.522 40.811 132.398 42.3661C132.008 42.9054 131.622 43.3908 131.24 43.8223C130.948 44.157 130.657 44.4651 130.369 44.7464C130.357 44.7577 130.345 44.7689 130.334 44.7801C130.331 44.7828 130.328 44.7855 130.325 44.7882C130.076 45.029 129.828 45.2499 129.582 45.4508C129.137 45.8139 128.696 46.1119 128.26 46.3448C128.24 46.3558 128.219 46.3667 128.199 46.3774C127.642 46.667 127.094 46.8504 126.553 46.9277C126.487 46.937 126.421 46.9452 126.357 46.9522C126.343 46.9537 126.33 46.9551 126.317 46.9564C126.01 46.9879 125.718 46.9945 125.439 46.9763C125.438 46.9763 125.437 46.9762 125.435 46.9761C124.797 46.934 124.232 46.7616 123.74 46.459C123.661 46.4101 123.583 46.3592 123.506 46.3061C123.495 46.2986 123.485 46.291 123.474 46.2834C123.141 46.049 122.835 45.7742 122.554 45.459C122.54 45.4433 122.526 45.4275 122.513 45.4116C122.266 45.1285 122.041 44.8135 121.836 44.4668C121.733 44.2815 121.635 44.091 121.541 43.8952C121.525 43.8602 121.508 43.825 121.492 43.7896C121.165 43.0854 120.899 42.315 120.693 41.4785C120.643 41.2741 120.595 41.0694 120.55 40.8643C120.347 39.9525 120.19 39.0342 120.078 38.1094C120.048 37.8134 120.021 37.5219 119.997 37.2349C119.995 37.2068 119.993 37.1788 119.991 37.1508C119.926 36.3511 119.887 35.5866 119.873 34.8574C119.86 34.1846 119.851 33.5889 119.847 33.0703C119.845 32.8061 119.844 32.562 119.844 32.3379C119.844 30.9878 119.885 29.4387 119.968 27.6905C119.972 27.6065 119.976 27.522 119.98 27.437C119.98 27.4354 119.981 27.4338 119.981 27.4322C119.984 27.3685 119.987 27.3045 119.99 27.2402C120.096 25.5029 120.28 23.5685 120.543 21.437C120.572 21.1962 120.603 20.9529 120.635 20.707L114.629 20.5312C114.485 21.4696 114.356 22.4007 114.242 23.3245C114.094 24.5183 113.97 25.7 113.871 26.8694C113.87 26.8856 113.869 26.9018 113.867 26.918C113.867 26.9183 113.867 26.9187 113.867 26.919C113.867 26.923 113.866 26.927 113.866 26.9309C113.866 26.9356 113.865 26.9402 113.865 26.9449ZM150.436 57.5774C150.175 58.0788 149.859 58.5596 149.487 59.0199C149.47 59.0418 149.452 59.0637 149.434 59.0856C149.434 59.0857 149.434 59.0855 149.434 59.0856C149.202 59.3779 148.944 59.6497 148.66 59.9004C148.566 59.9837 148.469 60.0646 148.369 60.1432C148.186 60.2867 147.994 60.4226 147.793 60.5508C147.341 60.8471 146.834 61.0873 146.27 61.2715C146.241 61.281 146.212 61.2905 146.182 61.2997C145.993 61.359 145.797 61.4121 145.596 61.459C145.05 61.5955 144.452 61.665 143.804 61.6674C143.432 61.6689 143.043 61.6482 142.637 61.6055L142.285 68.2266C144.074 68.2423 145.668 68.094 147.066 67.7818C147.101 67.774 147.136 67.7661 147.171 67.7581C147.475 67.6878 147.771 67.6096 148.057 67.5234C148.508 67.3945 148.941 67.2523 149.355 67.0967C150.08 66.8245 150.749 66.5115 151.361 66.1577C151.388 66.1421 151.415 66.1264 151.442 66.1107C151.722 65.9458 151.99 65.7721 152.246 65.5898C153.183 64.9232 153.971 64.1727 154.61 63.3384C154.634 63.308 154.657 63.2774 154.68 63.2468C154.802 63.0837 154.918 62.9174 155.029 62.748C155.58 61.9294 156.04 61.0825 156.409 60.2072C156.411 60.2035 156.412 60.1999 156.414 60.1962C156.527 59.9265 156.632 59.654 156.729 59.3789C157.139 58.2266 157.412 57.0547 157.549 55.8633C157.689 54.8122 157.774 53.8161 157.804 52.875C157.808 52.7669 157.81 52.6594 157.812 52.5527C157.812 52.5513 157.812 52.5498 157.812 52.5484C157.812 51.1423 157.822 49.1125 157.842 46.459C157.842 45.9949 157.843 45.4981 157.847 44.9685C157.847 44.9643 157.847 44.96 157.847 44.9558C157.852 44.196 157.86 43.369 157.871 42.4746C157.891 40.9512 157.9 39.2031 157.9 37.2305C157.906 36.6541 157.912 36.0588 157.917 35.4448C157.931 33.9367 157.945 32.3151 157.959 30.5801C157.96 30.5185 157.961 30.4566 157.962 30.3947C157.996 28.2385 158.03 25.8748 158.064 23.3035C158.066 23.1339 158.069 22.9634 158.071 22.792C158.073 22.6542 158.074 22.5159 158.076 22.377L152.012 22.1426C152.012 22.1945 152.012 22.2464 152.012 22.2982C152.012 22.3688 152.012 22.4393 152.012 22.5097C152.011 24.8648 152.009 27.0774 152.005 29.1475C152.004 29.6003 152.003 30.0463 152.001 30.4855C152.001 30.5012 152.001 30.5168 152.001 30.5324C151.997 32.2661 151.99 33.8933 151.982 35.4141C151.979 36.0158 151.976 36.6019 151.972 37.1724C151.972 37.1917 151.972 37.2111 151.972 37.2305C151.96 39.1271 151.945 40.8498 151.927 42.3984C151.917 43.2811 151.906 44.1073 151.895 44.877C151.888 45.4034 151.881 45.9161 151.874 46.4151C151.873 46.4297 151.873 46.4444 151.873 46.459C151.841 48.7375 151.809 50.7297 151.777 52.4355C151.777 52.4367 151.777 52.4378 151.777 52.4389C151.774 52.4769 151.771 52.5149 151.768 52.5527C151.698 53.4342 151.567 54.2633 151.375 55.0401C151.366 55.0774 151.357 55.1146 151.347 55.1516C151.159 55.8829 150.917 56.5673 150.62 57.2046C150.615 57.215 150.61 57.2253 150.605 57.2357C150.586 57.2765 150.566 57.317 150.547 57.3574C150.511 57.4312 150.474 57.5045 150.436 57.5774Z" fill="#182A34"/>
</svg>
