<svg width="207" height="69" viewBox="0 0 207 69" fill="none" xmlns="http://www.w3.org/2000/svg">
<path fill-rule="evenodd" clip-rule="evenodd" d="M13.9102 33.9473L7.25977 33.8301V28.2344L14.2324 28.293C14.2345 28.2734 14.2365 28.2539 14.2386 28.2344C14.2561 28.0707 14.2748 27.9076 14.2947 27.7449C14.3272 27.4802 14.3629 27.2169 14.402 26.9548C14.4033 26.9458 14.4047 26.9368 14.406 26.9278C14.6212 25.4929 14.9353 24.0976 15.3484 22.7419C15.3506 22.7347 15.3527 22.7276 15.3549 22.7205C15.3902 22.605 15.4262 22.4899 15.4629 22.375C15.929 20.9474 16.531 19.6448 17.2688 18.4671C17.5202 18.0657 17.7874 17.6789 18.0703 17.3066C18.7351 16.447 19.4973 15.6883 20.3571 15.0305C20.3884 15.0066 20.4198 14.9828 20.4513 14.9592C21.0301 14.5248 21.6525 14.1354 22.3184 13.791C22.9056 13.4873 23.5337 13.236 24.2027 13.0372C24.339 12.9967 24.477 12.9584 24.6167 12.9222C25.775 12.6225 27.0499 12.4727 28.4414 12.4727C28.5122 12.4727 28.5832 12.4733 28.6544 12.4747C28.6838 12.4752 28.7133 12.4759 28.7428 12.4767C29.2932 12.4915 29.8559 12.5465 30.4308 12.6419C31.1081 12.7542 31.8024 12.9224 32.5137 13.1465C32.5211 13.1487 32.5285 13.1509 32.5359 13.1531C32.5639 13.1615 32.592 13.1701 32.6201 13.1789C32.6269 13.181 32.6337 13.1831 32.6405 13.1852C34.0424 13.6251 35.4259 14.4423 36.791 15.6367L33.8906 20.5586C33.5891 20.3464 33.2899 20.1526 32.9932 19.9771C32.6859 19.7954 32.3811 19.6333 32.0789 19.491C31.6523 19.29 31.2308 19.1283 30.8145 19.0059C30.8014 19.0018 30.7884 18.9977 30.7753 18.9936C30.7437 18.9838 30.7121 18.974 30.6806 18.9644C29.8599 18.7131 29.1134 18.543 28.4414 18.454C28.3421 18.4409 28.2445 18.4295 28.1484 18.4199C27.2305 18.3418 26.3711 18.3711 25.5703 18.5078C25.3283 18.5683 25.0946 18.6401 24.8694 18.7231C24.3678 18.908 23.9081 19.1488 23.4902 19.4453C23.07 19.73 22.6874 20.0994 22.3424 20.5534C22.3333 20.5654 22.3243 20.5774 22.3153 20.5894C22.1731 20.7794 22.0374 20.984 21.9082 21.2031C21.878 21.2544 21.8481 21.3065 21.8186 21.3596C21.4122 22.0908 21.0729 22.9978 20.8006 24.0809C20.7987 24.0884 20.7968 24.096 20.7949 24.1035C20.7939 24.1074 20.793 24.1112 20.792 24.1151C20.5817 24.9447 20.4016 25.9105 20.2519 27.0125C20.2498 27.0276 20.2478 27.0427 20.2458 27.0578C20.1902 27.4701 20.1389 27.9014 20.0918 28.3516L32.5137 28.4102L31.8691 34.1816L19.7402 34.0059V36.584C19.7292 38.0394 19.7213 39.5135 19.7165 41.0062C19.7155 41.3024 19.7147 41.5994 19.714 41.897C19.714 41.9024 19.714 41.9078 19.714 41.9132C19.7119 42.7675 19.7109 43.6278 19.7109 44.4941C19.7109 45.6465 19.7012 46.877 19.6816 48.1855V52.1406C19.6816 53.4883 19.6719 54.8555 19.6523 56.2422C19.6523 57.6094 19.6426 58.9375 19.623 60.2266L13.5586 60.3438C13.5596 60.2739 13.5605 60.2042 13.5615 60.1347C13.5802 58.7749 13.5979 57.4774 13.6145 56.2422C13.6149 56.2138 13.6153 56.1855 13.6157 56.1572C13.6289 55.179 13.6415 54.2402 13.6534 53.3406C13.6588 52.9325 13.6641 52.5325 13.6693 52.1406C13.682 51.1734 13.6939 50.2555 13.7051 49.3867C13.7103 48.977 13.7156 48.5766 13.7208 48.1855C13.7212 48.1558 13.7216 48.1262 13.722 48.0966C13.7396 46.7906 13.7573 45.5898 13.7749 44.4941C13.7907 43.511 13.8065 42.6126 13.8223 41.7988C13.8563 39.7565 13.8829 38.0182 13.9021 36.584C13.9023 36.5692 13.9025 36.5545 13.9027 36.5398C13.9053 36.3437 13.9078 36.1534 13.9102 35.9688V33.9473ZM6.8374 40.8237L0.259766 40.7078V21.1753L8.49163 21.2445C8.58787 20.9095 8.68903 20.576 8.79512 20.2441L8.80182 20.2231L8.80865 20.2022C9.65347 17.6149 10.8683 15.2143 12.4972 13.0711L12.515 13.0477L12.5329 13.0244C14.3103 10.7261 16.5285 8.90482 19.1024 7.57349C22.0102 6.06948 25.2089 5.47266 28.4414 5.47266C30.5296 5.47266 32.5819 5.83362 34.5662 6.45402C37.1548 7.23435 39.4278 8.64253 41.4005 10.3687L45.7683 14.1904L41.9256 20.7114C41.9385 20.706 41.9514 20.7006 41.9643 20.6952C43.8379 19.9039 45.7379 19.2905 47.6384 18.9449L47.6475 18.9433L47.6565 18.9417C49.2641 18.6537 50.8601 18.4805 52.4062 18.4805C55.0063 18.4805 57.588 18.9326 60.0157 20.0043C62.2071 20.9532 64.1694 22.2854 65.852 23.9874C66.2972 24.4273 66.7193 24.8858 67.1186 25.3614L67.0145 21.2183L87.1903 18.998L87.2266 21.6352C88.2845 21.4026 89.3585 21.293 90.4336 21.293C92.0229 21.293 93.5896 21.5565 95.0978 22.0885C96.3708 22.5217 97.5435 23.1409 98.6025 23.9188C99.3827 23.4079 100.202 22.9569 101.06 22.5702C102.978 21.6838 105 21.293 107.016 21.293C108.688 21.293 110.324 21.5811 111.89 22.1402C113.622 22.7591 115.167 23.7248 116.477 24.9866L116.494 23.5272C116.458 23.4472 116.423 23.3668 116.389 23.2861C115.799 21.8916 115.514 20.4246 115.514 18.9473C115.514 17.4839 115.787 16.0032 116.389 14.5792C116.937 13.2838 117.725 12.0791 118.765 11.0385C119.733 10.0706 120.87 9.27308 122.157 8.69807C123.58 8.05124 125.099 7.72852 126.645 7.72852C128.158 7.72852 129.674 8.03058 131.115 8.67709C131.244 8.73333 131.372 8.79195 131.499 8.85297L131.687 0.0527344H151.861L151.659 7.24929C151.631 8.25634 151.603 9.23998 151.574 10.2002C152.317 9.60385 153.138 9.09731 154.032 8.69807C155.455 8.05124 156.974 7.72852 158.52 7.72852C160.033 7.72852 161.549 8.03058 162.99 8.67709C164.268 9.23296 165.433 10.0232 166.429 11.0381C167.444 12.0345 168.234 13.1992 168.79 14.4779C169.436 15.9181 169.738 17.4345 169.738 18.9473C169.738 20.4756 169.423 21.9784 168.79 23.3879C168.691 23.6146 168.585 23.8378 168.472 24.0571L168.469 24.2213C168.639 24.1064 168.81 23.9935 168.982 23.8826C170.962 22.6 172.942 21.5163 174.914 20.6952C176.787 19.9039 178.687 19.2905 180.588 18.9449L180.597 18.9433L180.606 18.9417C182.213 18.6537 183.809 18.4805 185.355 18.4805C187.956 18.4805 190.537 18.9327 192.965 20.0045C195.157 20.9534 197.119 22.2855 198.801 23.9874C200.432 25.5988 201.752 27.4579 202.782 29.5049C203.747 31.367 204.513 33.3395 205.097 35.4047C205.674 37.4263 206.077 39.5071 206.313 41.6402C206.558 43.6788 206.682 45.7146 206.682 47.7461C206.682 49.8854 206.559 52.1317 206.325 54.4778C206.089 56.8311 205.73 59.3517 205.256 62.032L204.047 68.8679L187.044 66.0052C184.551 66.6757 182.056 67.0508 179.584 67.0508C177.565 67.0508 175.575 66.7848 173.632 66.2452C171.568 65.6866 169.62 64.7874 167.866 63.5053L167.805 63.4605V65.791H155.755L155.659 66.5226L149.427 66.4349C147.313 66.4051 145.174 66.0438 143.133 65.1905L143.112 65.1816L143.091 65.1726C141.418 64.4602 139.862 63.515 138.466 62.3187L138.398 62.2605L138.332 62.2007C137.447 61.4023 136.646 60.5286 135.93 59.5851V65.791H115.793L115.796 65.6262L101.51 66.3097V65.5018L85.3086 66.3369V65.4558L71.5792 66.1458L71.0976 68.8679L54.0946 66.0052C51.6021 66.6757 49.1066 67.0508 46.6348 67.0508C44.6161 67.0508 42.6258 66.7848 40.6829 66.2452C38.6186 65.6866 36.6713 64.7874 34.9168 63.5053L34.8552 63.4603L34.7947 63.414C32.9799 62.0262 31.5352 60.2985 30.462 58.3198L30.4285 58.258L30.3963 58.1956C29.1849 55.8509 28.707 53.3305 28.707 50.8516C28.707 48.582 29.0434 46.3122 29.8559 44.1457C30.2391 43.1236 30.7062 42.1411 31.2601 41.2069L31.2322 41.1731L26.7162 41.1077C26.7127 42.2258 26.7109 43.3546 26.7109 44.4941C26.7109 45.67 26.7011 46.918 26.6816 48.2374V52.1406C26.6816 53.5061 26.6719 54.8897 26.6523 56.2915C26.6521 57.6746 26.6421 59.0217 26.6222 60.3326L26.5198 67.0946L6.45969 67.4822L6.55926 60.2474C6.61783 55.991 6.66663 52.341 6.70565 49.297C6.74476 46.2465 6.78399 43.7037 6.8234 41.6726C6.82822 41.3834 6.83288 41.1005 6.8374 40.8237ZM65.4141 60.8125C65.4371 60.682 65.4599 60.5521 65.4824 60.4226C65.5726 59.903 65.6578 59.3916 65.738 58.8886C65.8789 58.0047 66.0045 57.1464 66.1146 56.3138C66.2254 55.4766 66.3206 54.6653 66.4002 53.88C66.4035 53.847 66.4069 53.8141 66.4102 53.7812C66.4124 53.7586 66.4147 53.736 66.4169 53.7133C66.5649 52.2193 66.6609 50.7916 66.7047 49.4301C66.7232 48.857 66.7324 48.2957 66.7324 47.7461C66.7324 47.4434 66.7292 47.1404 66.7229 46.8371C66.7199 46.6936 66.7161 46.55 66.7117 46.4064C66.6798 45.3742 66.611 44.3386 66.5054 43.2997C66.4822 43.0713 66.4572 42.8428 66.4305 42.6141C66.4238 42.5572 66.417 42.5003 66.4102 42.4434C66.2227 40.7373 65.9092 39.0941 65.4698 37.514C65.4514 37.448 65.4328 37.3822 65.4141 37.3164C65.3793 37.1934 65.3438 37.0709 65.3076 36.9492C64.9457 35.7336 64.5091 34.5823 63.9975 33.4951C63.9918 33.483 63.9861 33.4709 63.9804 33.4588C63.8572 33.198 63.7296 32.9409 63.5977 32.6875C63.0489 31.59 62.3987 30.605 61.6472 29.7328C61.6126 29.6926 61.5778 29.6527 61.5428 29.613C61.3368 29.3796 61.1233 29.1544 60.9023 28.9375C59.9627 27.9804 58.8834 27.2094 57.6646 26.6244C57.5155 26.5528 57.3643 26.484 57.2109 26.418C55.8047 25.793 54.2031 25.4805 52.4062 25.4805C52.3098 25.4805 52.2121 25.4815 52.1133 25.4835C51.1515 25.5033 50.0773 25.6195 48.8906 25.832C48.7388 25.8596 48.5853 25.8901 48.4303 25.9234C48.3993 25.93 48.3684 25.9368 48.3373 25.9436C47.2019 26.1947 45.9801 26.5969 44.6719 27.1504C44.4496 27.2428 44.225 27.3404 43.9981 27.4435C42.7148 28.026 41.3566 28.7791 39.9233 29.7026C39.8949 29.721 39.8664 29.7393 39.8379 29.7578C39.6833 29.8579 39.5281 29.9607 39.3723 30.066C39.3424 30.0862 39.3125 30.1065 39.2825 30.1269C39.2691 30.136 39.2557 30.1452 39.2422 30.1544C39.1489 30.2182 39.0553 30.283 38.9614 30.3487C37.5107 31.3646 36.006 32.6032 34.4473 34.0645L37.9922 38.3711C38.077 38.2853 38.1615 38.2003 38.2457 38.1161C38.3313 38.0306 38.4166 37.9459 38.5016 37.8622C38.6951 37.6715 38.8871 37.4853 39.0776 37.3036C40.2578 36.1781 41.3803 35.2253 42.4453 34.4453C42.5425 34.3728 42.6392 34.3013 42.7353 34.231C42.8469 34.1493 42.9578 34.0691 43.068 33.9905C43.0751 33.9854 43.0822 33.9803 43.0894 33.9752C43.1636 33.9222 43.2375 33.87 43.3111 33.8184C44.3686 33.0772 45.3593 32.4756 46.2832 32.0137C46.3977 31.9564 46.5112 31.901 46.6238 31.8473C46.6336 31.8426 46.6434 31.838 46.6531 31.8333C47.0499 31.645 47.4351 31.4786 47.8086 31.3343C47.839 31.3226 47.8693 31.311 47.8995 31.2996C47.9129 31.2945 47.9262 31.2895 47.9396 31.2845C48.4869 31.0791 49.009 30.9218 49.5059 30.8125C49.5954 30.791 49.6839 30.7705 49.7716 30.751C49.7759 30.7501 49.7802 30.7491 49.7845 30.7482C50.6485 30.5567 51.4248 30.4609 52.1133 30.4609C52.2121 30.4609 52.3098 30.4626 52.4062 30.4659C53.2392 30.4947 53.9841 30.6478 54.641 30.9251C54.8017 30.993 54.9572 31.0683 55.1074 31.151C55.1152 31.1554 55.123 31.1597 55.1309 31.1641C55.1407 31.1696 55.1505 31.1751 55.1604 31.1806C55.8862 31.5903 56.5091 32.1102 57.0291 32.7403C57.0504 32.766 57.0714 32.792 57.0923 32.8181C57.0986 32.8259 57.1048 32.8337 57.1111 32.8416C57.1549 32.8968 57.1979 32.9529 57.2402 33.0098C57.7557 33.6626 58.188 34.3986 58.5371 35.2178C58.5492 35.2461 58.5612 35.2745 58.5731 35.303C58.6082 35.3874 58.6424 35.4725 58.6758 35.5586C58.6962 35.6103 58.7165 35.662 58.7366 35.7138C59.0812 36.6017 59.3734 37.507 59.6133 38.4297C59.2254 38.3592 58.8117 38.2946 58.3721 38.236C58.2976 38.2261 58.2225 38.2164 58.1465 38.2068C57.6774 38.1476 57.18 38.0949 56.6543 38.0488C55.8945 37.9822 55.0937 37.9383 54.252 37.9171C53.8604 37.9073 53.46 37.9023 53.0508 37.9023C52.9507 37.9023 52.8506 37.9029 52.7505 37.904C52.7079 37.9045 52.6652 37.9051 52.6226 37.9058C52.4416 37.9086 52.2605 37.9133 52.0792 37.9199C51.3149 37.9474 50.5477 38.0073 49.7775 38.0997C49.6362 38.1166 49.4948 38.1347 49.3533 38.1538C49.1894 38.1759 49.0254 38.1995 48.8613 38.2246C48.5695 38.2651 48.2802 38.3107 47.9935 38.3613C47.9892 38.3621 47.9849 38.3629 47.9806 38.3636C47.2198 38.4984 46.4768 38.6686 45.7515 38.8744C45.7343 38.8793 45.7171 38.8842 45.6999 38.8891C45.4031 38.9742 45.1092 39.0652 44.8184 39.1621C43.8411 39.4929 42.9102 39.8989 42.0255 40.3801C41.7609 40.524 41.5005 40.6746 41.2441 40.832C41.0877 40.9281 40.9341 41.0269 40.7835 41.1283C39.862 41.7489 39.0488 42.4704 38.3438 43.293C37.9104 43.7985 37.5262 44.3449 37.191 44.9322C37.1783 44.9543 37.1658 44.9765 37.1533 44.9987C36.8697 45.5037 36.622 46.0387 36.4102 46.6035C36.3355 46.8026 36.2668 47.0058 36.2041 47.2133C35.8727 48.3087 35.707 49.5215 35.707 50.8516C35.707 51.5598 35.7677 52.227 35.8891 52.853C35.8927 52.8718 35.8964 52.8905 35.9001 52.9092C36.0506 53.6598 36.289 54.3509 36.6152 54.9824C37.2402 56.1348 38.0508 57.0918 39.0469 57.8535C39.5084 58.1908 40.0002 58.4877 40.5222 58.7443C40.5404 58.7533 40.5587 58.7622 40.577 58.7711C41.188 59.0669 41.84 59.3079 42.5332 59.4941C43.7504 59.8342 45.0004 60.0185 46.2832 60.0469C46.4001 60.0495 46.5173 60.0508 46.6348 60.0508C48.1605 60.0508 49.7721 59.8503 51.4696 59.4494C51.4872 59.4452 51.5049 59.441 51.5225 59.4368C51.9135 59.3436 52.3089 59.2398 52.709 59.1254C52.8225 59.0929 52.9365 59.0596 53.0508 59.0254C54.0555 58.7274 55.0677 58.3495 56.0873 57.8919C56.0998 57.8863 56.1124 57.8806 56.1249 57.875C57.0908 57.4397 58.0634 56.9327 59.0427 56.3542C59.3883 56.15 59.7348 55.9369 60.082 55.7148L59.6719 59.8457L65.4141 60.8125ZM59.691 49.6743C59.9752 49.5043 60.2423 49.3401 60.4922 49.1816C60.5114 48.7008 60.5283 48.2222 60.5428 47.7461C60.5494 47.5303 60.5554 47.315 60.561 47.1002C60.5682 46.8264 60.5745 46.5534 60.5801 46.2812C60.5839 46.0959 60.5851 45.9091 60.5837 45.7209C60.5781 44.937 60.5281 44.1277 60.4336 43.293C60.333 43.2622 60.2318 43.232 60.1301 43.2025C60.0721 43.1857 60.0139 43.1691 59.9556 43.1527C59.7819 43.1038 59.6066 43.0568 59.4297 43.0117C59.2244 42.9593 59.0169 42.9095 58.8074 42.8621C58.3534 42.7595 57.8897 42.6688 57.416 42.5898C57.0339 42.5262 56.6518 42.474 56.2697 42.4334C55.5971 42.3619 54.9245 42.3262 54.252 42.3262C53.849 42.3262 53.4486 42.3369 53.0508 42.3585C51.8665 42.4227 50.7049 42.5823 49.5661 42.8375C49.5454 42.8422 49.5247 42.8468 49.504 42.8515C49.3774 42.8803 49.251 42.9103 49.125 42.9414C48.1409 43.1874 47.2376 43.5002 46.4151 43.8798C46.4081 43.883 46.4011 43.8862 46.3941 43.8895C45.8534 44.1402 45.3476 44.4199 44.877 44.7285C44.5737 44.9274 44.2894 45.1377 44.0241 45.3593C43.4591 45.8313 42.9802 46.355 42.5874 46.9303C42.44 47.1462 42.3048 47.3693 42.1816 47.5996C42.0122 47.9271 41.882 48.2677 41.791 48.6213C41.6125 49.3145 41.5846 50.058 41.7073 50.8516C41.7385 51.0534 41.7794 51.2585 41.8301 51.4668C41.8789 51.6762 41.9359 51.8744 42.001 52.0613C42.0147 52.1007 42.0288 52.1396 42.0432 52.178C42.1736 52.5251 42.3335 52.8314 42.5228 53.097C42.5487 53.1335 42.5753 53.1691 42.6023 53.2041C42.8323 53.5006 43.1022 53.7418 43.4121 53.9277C43.5859 54.0295 43.7671 54.1202 43.9556 54.1998C43.9725 54.207 43.9895 54.214 44.0066 54.221C44.6744 54.4942 45.4333 54.6309 46.2832 54.6309C46.3995 54.6309 46.5167 54.6289 46.6348 54.625C47.6675 54.5908 48.771 54.4072 49.9453 54.0742C50.4425 53.928 50.9369 53.7708 51.4286 53.6027C51.4328 53.6013 51.4369 53.5998 51.4411 53.5984C52.2587 53.3185 53.0687 53.0084 53.8711 52.668C55.0199 52.1707 56.1086 51.6509 57.137 51.1085C57.28 51.033 57.4218 50.9572 57.5625 50.8809C58.3552 50.4509 59.0647 50.0487 59.691 49.6743ZM114.55 49.8084C114.54 49.321 114.528 48.8484 114.516 48.3906C114.478 46.5464 114.432 44.9117 114.379 43.4866C114.378 43.4698 114.377 43.4531 114.377 43.4363C114.347 42.6622 114.315 41.9504 114.281 41.3008C114.238 40.35 114.194 39.4706 114.147 38.6625C114.145 38.6213 114.142 38.5803 114.14 38.5395C114.082 37.5552 114.022 36.6788 113.959 35.9102C113.92 34.582 113.695 33.4395 113.285 32.4824C113.216 32.3169 113.143 32.1566 113.066 32.0017C113.049 31.9661 113.031 31.9307 113.013 31.8956C112.65 31.184 112.213 30.5886 111.703 30.1094C111.078 29.4844 110.355 29.0254 109.535 28.7324C108.715 28.4395 107.875 28.293 107.016 28.293C106.581 28.293 106.161 28.3257 105.756 28.3913C105.124 28.4936 104.528 28.6756 103.969 28.9375C103.636 29.0863 103.31 29.2518 102.993 29.4341C102.589 29.6658 102.197 29.9245 101.818 30.2103C101.796 30.2272 101.774 30.2442 101.751 30.2613C101.63 30.3544 101.51 30.4502 101.391 30.5488C100.779 31.0533 100.197 31.6057 99.6458 32.206C99.6255 32.2281 99.6051 32.2503 99.5849 32.2726C99.4526 32.4179 99.3221 32.5659 99.1934 32.7168C98.7914 33.1897 98.4002 33.659 98.0197 34.1247C97.9494 34.2108 97.8795 34.2967 97.8099 34.3825C97.7912 34.4055 97.7725 34.4286 97.7539 34.4517C97.5971 34.6455 97.4421 34.8387 97.2891 35.0312C97.252 34.6607 97.1993 34.3068 97.1311 33.9695C97.12 33.915 97.1086 33.8609 97.0967 33.8073C96.9532 33.1575 96.7498 32.5714 96.4866 32.0488C96.4807 32.0371 96.4747 32.0253 96.4688 32.0137C96.464 32.0042 96.4592 31.9947 96.4545 31.9853C96.4365 31.9496 96.4183 31.9142 96.4 31.8791C95.9832 31.0806 95.4788 30.4224 94.8867 29.9043C94.3916 29.471 93.8535 29.1297 93.2725 28.8803C93.1202 28.8149 92.9649 28.7559 92.8066 28.7031C92.0449 28.4297 91.2539 28.293 90.4336 28.293C89.9789 28.293 89.5395 28.3279 89.1152 28.3979C88.4857 28.5016 87.8896 28.6824 87.327 28.9402C87.3078 28.9489 87.2886 28.9578 87.2695 28.9668C86.4559 29.3397 85.6865 29.8082 84.9611 30.3723C84.8507 30.4582 84.7412 30.5464 84.6328 30.6367C83.9746 31.1986 83.3494 31.8133 82.7572 32.4807C82.7387 32.5016 82.7202 32.5225 82.7017 32.5435C82.5923 32.6678 82.4841 32.7939 82.377 32.9219C82.025 33.3442 81.6808 33.7614 81.3443 34.1734C81.1582 34.4013 80.9745 34.6277 80.7932 34.8524C80.7799 34.8688 80.7667 34.8852 80.7534 34.9017C80.6394 35.0431 80.5262 35.184 80.4141 35.3242L80.2969 26.7988L74.1738 27.4727L74.9648 58.9668L80.7949 58.6738L80.5312 43.2344C80.8229 42.7969 81.1571 42.2913 81.5338 41.7178C81.5607 41.6768 81.5879 41.6354 81.6152 41.5938C82.0254 40.9688 82.4648 40.3145 82.9336 39.6309C83.2704 39.1397 83.6173 38.6535 83.9743 38.1724C84.1141 37.984 84.2555 37.7963 84.3984 37.6094C84.8851 36.9542 85.3808 36.3708 85.8854 35.8592C85.8879 35.8567 85.8903 35.8542 85.8928 35.8517C85.9122 35.832 85.9317 35.8124 85.9512 35.793C86.1567 35.5947 86.3609 35.4103 86.5637 35.2397C86.8468 35.0015 87.1272 34.7903 87.4048 34.6059C87.4575 34.5709 87.51 34.5369 87.5625 34.5039C87.6281 34.4626 87.6935 34.4239 87.7587 34.3878C87.7761 34.3782 87.7934 34.3687 87.8108 34.3595C88.2525 34.1237 88.6873 34.0059 89.1152 34.0059C89.2874 34.0059 89.4516 34.0269 89.608 34.0689C89.6299 34.0748 89.6517 34.0811 89.6733 34.0878C89.9526 34.1746 90.206 34.3304 90.4336 34.5551C90.5006 34.6213 90.5654 34.6934 90.6279 34.7715C90.628 34.7716 90.6278 34.7714 90.6279 34.7715C90.6581 34.8093 90.6881 34.8488 90.7173 34.8894C90.7235 34.8981 90.7297 34.9068 90.7358 34.9155C90.7412 34.9232 90.7466 34.9309 90.7519 34.9386C90.8037 35.0138 90.8539 35.0935 90.9023 35.1777C90.9879 35.3203 91.0666 35.4765 91.1384 35.6463C91.4605 36.4074 91.6455 37.4426 91.6934 38.752C91.6949 38.7685 91.6964 38.7851 91.6979 38.8018C91.7949 39.8638 91.8783 41.155 91.9483 42.6755C91.9615 42.9611 91.9741 43.2548 91.9863 43.5566C92.0138 44.1409 92.0401 44.7797 92.0652 45.4729C92.1018 46.4849 92.1358 47.613 92.1673 48.8571C92.168 48.8856 92.1687 48.9141 92.1694 48.9427C92.1769 49.2404 92.1842 49.5446 92.1914 49.8555C92.212 50.5211 92.23 51.2229 92.2451 51.9608C92.2495 52.1744 92.2537 52.391 92.2577 52.6107C92.2609 52.7937 92.2641 52.9788 92.267 53.166C92.2674 53.1889 92.2677 53.2117 92.2681 53.2346C92.2938 54.8852 92.3073 56.6983 92.3085 58.6738C92.3086 58.7711 92.3086 58.8687 92.3086 58.9668L97.9922 58.6738C97.9922 56.623 97.9824 54.7871 97.9629 53.166C97.9629 51.9271 97.9515 50.7795 97.9287 49.7231C97.9283 49.7079 97.928 49.6927 97.9277 49.6776C97.9209 49.3677 97.9131 49.0656 97.9043 48.7715C97.8869 47.6065 97.8618 46.5499 97.8289 45.6017C97.8249 45.4848 97.8207 45.3695 97.8164 45.2559C97.7907 44.5738 97.7649 43.9299 97.7392 43.3242C97.7387 43.3115 97.7381 43.2987 97.7376 43.286C97.7248 42.9859 97.712 42.6953 97.6992 42.4141C97.9922 41.9648 98.334 41.4473 98.7246 40.8613C98.7672 40.7975 98.8099 40.7335 98.8529 40.6692C99.2048 40.1433 99.5722 39.6019 99.9551 39.0449C100.235 38.6381 100.523 38.2355 100.819 37.837C100.978 37.6232 101.139 37.4106 101.303 37.1992C101.758 36.6346 102.213 36.1294 102.669 35.6836C102.671 35.6814 102.673 35.6791 102.676 35.6768C102.706 35.6469 102.737 35.6173 102.768 35.5879C103.275 35.1191 103.773 34.7383 104.262 34.4453C104.341 34.3993 104.421 34.3569 104.5 34.3181C104.504 34.3162 104.508 34.3144 104.512 34.3125C104.933 34.1081 105.348 34.0059 105.756 34.0059C105.933 34.0059 106.103 34.0282 106.263 34.0729C106.307 34.085 106.35 34.0987 106.392 34.114C106.617 34.196 106.825 34.3244 107.016 34.4993C107.066 34.5458 107.116 34.5956 107.164 34.6487C107.208 34.6975 107.251 34.749 107.294 34.8034C107.31 34.825 107.327 34.847 107.343 34.8694C107.363 34.8967 107.383 34.9246 107.402 34.9531C107.411 34.9661 107.42 34.9791 107.429 34.9923C107.468 35.0515 107.506 35.1133 107.543 35.1777C107.698 35.436 107.831 35.7392 107.941 36.0872C107.972 36.1869 108.002 36.2904 108.03 36.3975C108.199 37.0469 108.3 37.8317 108.334 38.752C108.346 39.5567 108.363 40.4949 108.383 41.5665C108.383 41.5813 108.383 41.5962 108.384 41.6112C108.395 42.2173 108.408 42.8658 108.422 43.5566C108.438 44.9149 108.454 46.5674 108.47 48.514C108.47 48.5281 108.47 48.5422 108.47 48.5563C108.474 48.9757 108.477 49.4088 108.48 49.8555C108.486 50.5207 108.49 51.2221 108.494 51.9595C108.504 53.9379 108.509 56.176 108.51 58.6738C108.51 58.7711 108.51 58.8687 108.51 58.9668L114.633 58.6738C114.633 55.3128 114.605 52.3574 114.55 49.8084C114.55 49.8083 114.55 49.8085 114.55 49.8084ZM78.466 26.824C78.9853 26.2967 79.5259 25.7926 80.088 25.3128L80.1196 25.2858L80.1515 25.2592C81.4228 24.1998 82.8159 23.3109 84.3253 22.616M87.3028 27.1822C87.8774 27.0694 88.4824 27.0059 89.1152 27.0059C89.5714 27.0059 90.0109 27.0383 90.4336 27.0996C91.3994 27.2396 92.2773 27.5299 93.0653 27.9271M93.0822 27.9356C93.3126 28.0524 93.5354 28.1783 93.7503 28.3122C93.7868 28.2692 93.8232 28.2263 93.8598 28.1833L93.8646 28.1776L93.8694 28.172C94.8049 27.0761 95.8241 26.0673 96.9287 25.1552M198.363 60.8125C198.386 60.682 198.409 60.5521 198.432 60.4226C198.522 59.903 198.607 59.3917 198.687 58.8887C198.828 58.0047 198.954 57.1465 199.064 56.3138C199.175 55.4766 199.27 54.6653 199.349 53.88C199.353 53.847 199.356 53.8141 199.359 53.7812C199.362 53.7586 199.364 53.736 199.366 53.7133C199.514 52.2193 199.61 50.7916 199.654 49.4301C199.672 48.857 199.682 48.2957 199.682 47.7461C199.682 47.4434 199.678 47.1404 199.672 46.8371C199.669 46.6936 199.665 46.55 199.661 46.4064C199.629 45.3742 199.56 44.3386 199.455 43.2997C199.431 43.0713 199.406 42.8428 199.38 42.6141C199.373 42.5572 199.366 42.5003 199.359 42.4434C199.172 40.7373 198.858 39.0941 198.419 37.514C198.401 37.448 198.382 37.3822 198.363 37.3164C198.329 37.1934 198.293 37.0709 198.257 36.9492C197.895 35.7336 197.458 34.5823 196.947 33.4951C196.941 33.483 196.935 33.4709 196.93 33.4588C196.806 33.198 196.679 32.9409 196.547 32.6875C195.998 31.59 195.348 30.605 194.596 29.7328C194.562 29.6926 194.527 29.6527 194.492 29.613C194.286 29.3796 194.072 29.1544 193.852 28.9375C192.912 27.9804 191.833 27.2094 190.614 26.6244C190.465 26.5528 190.313 26.484 190.16 26.418C188.754 25.793 187.152 25.4805 185.355 25.4805C185.259 25.4805 185.161 25.4815 185.062 25.4835C184.101 25.5033 183.026 25.6195 181.84 25.832C181.688 25.8596 181.535 25.8901 181.379 25.9234C181.349 25.93 181.318 25.9368 181.287 25.9436C180.151 26.1947 178.929 26.5969 177.621 27.1504C177.399 27.2428 177.174 27.3404 176.947 27.4435C175.664 28.026 174.306 28.7791 172.873 29.7026C172.844 29.721 172.816 29.7393 172.787 29.7578C172.603 29.8771 172.418 30.0002 172.232 30.1269C172.218 30.136 172.205 30.1452 172.191 30.1544C172.098 30.2182 172.004 30.283 171.911 30.3487C170.735 31.1723 169.523 32.1423 168.276 33.2586C167.985 33.5193 167.692 33.7879 167.396 34.0645L170.941 38.3711C171.026 38.2853 171.111 38.2003 171.195 38.1161C171.475 37.836 171.753 37.5651 172.027 37.3036C173.207 36.1781 174.33 35.2253 175.395 34.4453C175.492 34.3728 175.588 34.3013 175.685 34.231C175.796 34.1493 175.907 34.0691 176.017 33.9905C176.024 33.9854 176.031 33.9803 176.039 33.9752C176.113 33.9222 176.187 33.87 176.26 33.8184C177.318 33.0772 178.309 32.4756 179.232 32.0137C179.347 31.9564 179.46 31.901 179.573 31.8473C179.583 31.8426 179.593 31.838 179.602 31.8333C179.999 31.645 180.384 31.4786 180.758 31.3343C180.788 31.3226 180.819 31.311 180.849 31.2996C180.862 31.2945 180.875 31.2895 180.889 31.2845C181.436 31.0791 181.958 30.9218 182.455 30.8125C182.545 30.791 182.633 30.7705 182.721 30.751C182.725 30.7501 182.729 30.7491 182.734 30.7482C183.598 30.5567 184.374 30.4609 185.062 30.4609C185.161 30.4609 185.259 30.4626 185.355 30.4659C186.188 30.4947 186.933 30.6478 187.59 30.9251C187.751 30.993 187.906 31.0683 188.057 31.151C188.064 31.1554 188.072 31.1597 188.08 31.1641C188.09 31.1696 188.1 31.1751 188.11 31.1806C188.835 31.5903 189.458 32.1102 189.978 32.7403C190 32.766 190.021 32.792 190.042 32.8181C190.048 32.8259 190.054 32.8337 190.06 32.8416C190.104 32.8968 190.147 32.9529 190.189 33.0098C190.705 33.6626 191.137 34.3986 191.486 35.2178C191.498 35.2461 191.51 35.2745 191.522 35.303C191.557 35.3874 191.592 35.4725 191.625 35.5586C191.645 35.6103 191.666 35.662 191.686 35.7138C192.03 36.6017 192.323 37.507 192.562 38.4297C192.175 38.3592 191.761 38.2946 191.321 38.236C191.247 38.2261 191.172 38.2164 191.096 38.2068C190.627 38.1476 190.129 38.0949 189.604 38.0488C188.844 37.9822 188.043 37.9383 187.201 37.9171C186.81 37.9073 186.409 37.9023 186 37.9023C185.9 37.9023 185.8 37.9029 185.7 37.904C185.657 37.9045 185.614 37.9051 185.572 37.9058C185.391 37.9086 185.21 37.9133 185.028 37.9199C184.264 37.9474 183.497 38.0073 182.727 38.0997C182.585 38.1166 182.444 38.1347 182.302 38.1538C182.139 38.1759 181.975 38.1995 181.811 38.2246C181.519 38.2651 181.229 38.3107 180.943 38.3613C180.938 38.3621 180.934 38.3629 180.93 38.3636C180.169 38.4984 179.426 38.6686 178.701 38.8744C178.684 38.8793 178.666 38.8842 178.649 38.8891C178.352 38.9742 178.058 39.0652 177.768 39.1621C176.79 39.4929 175.859 39.8989 174.975 40.3801C174.71 40.524 174.45 40.6746 174.193 40.832C174.037 40.9281 173.883 41.0269 173.733 41.1283C172.811 41.7489 171.998 42.4704 171.293 43.293C170.86 43.7985 170.475 44.3449 170.14 44.9322C170.128 44.9543 170.115 44.9765 170.102 44.9987C169.819 45.5037 169.571 46.0387 169.359 46.6035C169.285 46.8026 169.216 47.0058 169.153 47.2133C168.822 48.3087 168.656 49.5215 168.656 50.8516C168.656 51.5598 168.717 52.227 168.838 52.853C168.842 52.8718 168.846 52.8905 168.849 52.9092C169 53.6598 169.238 54.3509 169.564 54.9824C170.189 56.1348 171 57.0918 171.996 57.8535C172.458 58.1908 172.949 58.4877 173.471 58.7443C173.49 58.7533 173.508 58.7622 173.526 58.7711C174.137 59.0669 174.789 59.3079 175.482 59.4941C176.7 59.8342 177.95 60.0185 179.232 60.0469C179.349 60.0495 179.467 60.0508 179.584 60.0508C181.11 60.0508 182.721 59.8503 184.419 59.4494C184.436 59.4452 184.454 59.441 184.472 59.4368C184.863 59.3436 185.258 59.2398 185.658 59.1254C185.772 59.0929 185.886 59.0596 186 59.0254C187.005 58.7274 188.017 58.3495 189.037 57.8919C189.049 57.8863 189.062 57.8806 189.074 57.875C190.04 57.4397 191.013 56.9327 191.992 56.3542C192.338 56.15 192.684 55.9369 193.031 55.7148L192.621 59.8457L198.363 60.8125ZM192.64 49.6743C192.924 49.5043 193.191 49.3401 193.441 49.1816C193.461 48.7008 193.478 48.2222 193.492 47.7461C193.499 47.5303 193.505 47.315 193.51 47.1002C193.517 46.8264 193.524 46.5534 193.529 46.2812C193.533 46.0959 193.534 45.9091 193.533 45.7209C193.527 44.937 193.477 44.1277 193.383 43.293C193.282 43.2622 193.181 43.232 193.079 43.2025C193.021 43.1857 192.963 43.1691 192.905 43.1527C192.731 43.1038 192.556 43.0568 192.379 43.0117C192.174 42.9593 191.966 42.9095 191.757 42.8621C191.303 42.7595 190.839 42.6688 190.365 42.5898C189.983 42.5262 189.601 42.474 189.219 42.4334C188.546 42.3619 187.874 42.3262 187.201 42.3262C186.798 42.3262 186.398 42.3369 186 42.3585C184.816 42.4227 183.654 42.5823 182.515 42.8375C182.495 42.8422 182.474 42.8468 182.453 42.8515C182.327 42.8803 182.2 42.9103 182.074 42.9414C181.09 43.1874 180.187 43.5002 179.364 43.8798C179.357 43.883 179.35 43.8862 179.343 43.8895C178.803 44.1402 178.297 44.4199 177.826 44.7285C177.523 44.9274 177.239 45.1377 176.973 45.3593C176.408 45.8313 175.929 46.355 175.537 46.9303C175.389 47.1462 175.254 47.3693 175.131 47.5996C174.961 47.9271 174.831 48.2677 174.74 48.6213C174.562 49.3145 174.534 50.058 174.656 50.8516C174.688 51.0534 174.729 51.2585 174.779 51.4668C174.828 51.6762 174.885 51.8744 174.95 52.0613C174.964 52.1007 174.978 52.1396 174.992 52.178C175.123 52.5251 175.283 52.8314 175.472 53.097C175.498 53.1335 175.524 53.1691 175.552 53.2041C175.782 53.5006 176.051 53.7418 176.361 53.9277C176.535 54.0295 176.716 54.1202 176.905 54.1998C176.922 54.207 176.939 54.214 176.956 54.221C177.624 54.4942 178.382 54.6309 179.232 54.6309C179.349 54.6309 179.466 54.6289 179.584 54.625C180.617 54.5908 181.72 54.4072 182.895 54.0742C183.392 53.928 183.886 53.7708 184.378 53.6027C184.382 53.6013 184.386 53.5998 184.39 53.5984C185.208 53.3185 186.018 53.0084 186.82 52.668C187.969 52.1707 189.058 51.6509 190.086 51.1085C190.229 51.033 190.371 50.9572 190.512 50.8809C191.304 50.4509 192.014 50.0487 192.64 49.6743ZM161.024 22.2676C161.185 22.1487 161.337 22.0185 161.479 21.877C161.869 21.5059 162.172 21.0664 162.387 20.5586C162.621 20.0508 162.738 19.5137 162.738 18.9473C162.738 18.3613 162.621 17.8145 162.387 17.3066C162.172 16.7988 161.869 16.3594 161.479 15.9883C161.107 15.5977 160.668 15.2949 160.16 15.0801C159.652 14.8457 159.105 14.7285 158.52 14.7285C157.953 14.7285 157.416 14.8457 156.908 15.0801C156.42 15.2949 155.98 15.5977 155.59 15.9883C155.219 16.3594 154.926 16.7988 154.711 17.3066C154.496 17.8145 154.389 18.3613 154.389 18.9473C154.389 19.5137 154.496 20.0508 154.711 20.5586C154.926 21.0664 155.219 21.5059 155.59 21.877C155.819 22.0945 156.065 22.2852 156.327 22.4491C156.513 22.5647 156.706 22.667 156.908 22.7559C157.416 22.9707 157.953 23.0781 158.52 23.0781C159.105 23.0781 159.652 22.9707 160.16 22.7559C160.474 22.623 160.762 22.4602 161.024 22.2676ZM129.604 15.9883C129.232 15.5977 128.793 15.2949 128.285 15.0801C127.777 14.8457 127.23 14.7285 126.645 14.7285C126.078 14.7285 125.541 14.8457 125.033 15.0801C124.545 15.2949 124.105 15.5977 123.715 15.9883C123.344 16.3594 123.051 16.7988 122.836 17.3066C122.621 17.8145 122.514 18.3613 122.514 18.9473C122.514 19.5137 122.621 20.0508 122.836 20.5586C123.051 21.0664 123.344 21.5059 123.715 21.877C123.944 22.0945 124.19 22.2852 124.452 22.4491C124.638 22.5647 124.831 22.667 125.033 22.7559C125.541 22.9707 126.078 23.0781 126.645 23.0781C127.23 23.0781 127.777 22.9707 128.285 22.7559C128.599 22.623 128.887 22.4602 129.149 22.2676C129.31 22.1487 129.462 22.0185 129.604 21.877C129.994 21.5059 130.297 21.0664 130.512 20.5586C130.746 20.0508 130.863 19.5137 130.863 18.9473C130.863 18.3613 130.746 17.8145 130.512 17.3066C130.297 16.7988 129.994 16.3594 129.604 15.9883ZM123.07 51.2617C123.067 51.4396 123.063 51.6161 123.06 51.791C123.056 51.9634 123.053 52.1344 123.049 52.3039C123.049 52.3128 123.049 52.3217 123.049 52.3307C123 54.791 122.958 56.9444 122.924 58.791H128.93C128.93 57.248 128.959 55.1289 129.018 52.4336C129.023 52.0992 129.029 51.7486 129.035 51.3818C129.035 51.3729 129.035 51.3639 129.035 51.3549C129.049 50.4864 129.063 49.5276 129.076 48.4785C129.115 46.9551 129.154 45.2363 129.193 43.3223C129.201 42.9626 129.208 42.5957 129.215 42.2215C129.216 42.2107 129.216 42.1999 129.216 42.1891C129.248 40.5811 129.279 38.8397 129.311 36.9648C129.316 36.7357 129.322 36.5045 129.328 36.2711C129.377 34.2493 129.427 32.0665 129.477 29.7226C129.478 29.6712 129.479 29.6198 129.48 29.5683C129.482 29.4658 129.484 29.3629 129.486 29.2598L123.422 29.4941C123.421 29.5313 123.421 29.5684 123.421 29.6055C123.389 32.1787 123.354 34.5819 123.317 36.815C123.317 36.8314 123.317 36.8477 123.316 36.8641C123.285 38.7251 123.252 40.4676 123.217 42.0918C123.211 42.4672 123.205 42.8366 123.199 43.1999C123.169 45.0672 123.141 46.7758 123.117 48.3257C123.116 48.3509 123.116 48.376 123.115 48.4011C123.099 49.4242 123.084 50.3778 123.07 51.2617ZM139.506 51.7598C139.701 52.2279 139.918 52.6935 140.157 53.1568C140.179 53.2005 140.202 53.2442 140.225 53.2878C140.446 53.7082 140.684 54.1266 140.941 54.543C141.301 55.1065 141.701 55.6332 142.142 56.1231C142.17 56.1544 142.198 56.1856 142.227 56.2165C142.414 56.4201 142.608 56.6171 142.809 56.8077C142.879 56.8739 142.95 56.9393 143.021 57.0039C143.759 57.6358 144.591 58.1652 145.517 58.592C145.584 58.6229 145.652 58.6533 145.72 58.6832C145.758 58.6997 145.796 58.7162 145.834 58.7324C146.17 58.873 146.522 58.9925 146.888 59.091C147.179 59.169 147.479 59.2338 147.788 59.2855C148.337 59.3769 148.916 59.427 149.525 59.4355L150.287 53.6055C150.053 53.6 149.827 53.5847 149.608 53.5596C149.32 53.5265 149.045 53.4762 148.783 53.4089C148.575 53.3554 148.375 53.2912 148.184 53.2162C148.171 53.2114 148.159 53.2065 148.147 53.2016C148.118 53.19 148.089 53.1781 148.061 53.166C148.009 53.1418 147.958 53.117 147.907 53.0916C147.597 52.9356 147.306 52.7569 147.036 52.5556C146.995 52.5251 146.954 52.494 146.914 52.4625C146.741 52.3259 146.576 52.1795 146.42 52.0234C146.249 51.8452 146.087 51.6584 145.933 51.4632C145.914 51.4397 145.896 51.416 145.878 51.3922C145.648 51.0946 145.439 50.7776 145.248 50.4414C145.09 50.1454 144.947 49.8469 144.819 49.5458C144.816 49.5393 144.814 49.5327 144.811 49.5261C144.689 49.2378 144.581 48.9472 144.486 48.6543C144.047 47.3706 143.789 45.9286 143.714 44.3282C143.705 44.1511 143.699 43.972 143.695 43.791C143.696 43.7626 143.696 43.7341 143.697 43.7054C143.736 41.7796 143.794 39.1616 143.871 35.8516C143.91 34.4258 143.949 32.7754 143.988 30.9004C144.047 29.0254 144.105 26.9062 144.164 24.543C144.223 22.1602 144.291 19.5234 144.369 16.6328C144.397 15.7962 144.425 14.9362 144.453 14.0527C144.522 11.9016 144.59 9.61171 144.658 7.18304C144.66 7.13965 144.661 7.09621 144.662 7.05273H138.539L138.17 24.3944L138.17 24.3956L137.748 44.2012C137.937 46.4656 138.353 48.5402 138.998 50.4248C139.009 50.4574 139.02 50.4899 139.032 50.5224C139.178 50.9444 139.336 51.3569 139.506 51.7598ZM154.945 51.2617C154.942 51.4396 154.938 51.6161 154.935 51.791C154.931 51.9634 154.928 52.1344 154.924 52.3039C154.924 52.3128 154.924 52.3217 154.924 52.3307C154.911 52.9771 154.899 53.6024 154.887 54.2064C154.853 55.9014 154.824 57.4296 154.799 58.791H160.805C160.805 57.248 160.834 55.1289 160.893 52.4336C160.898 52.0992 160.904 51.7486 160.91 51.3818C160.91 51.3729 160.91 51.3639 160.91 51.3549C160.924 50.4864 160.938 49.5276 160.951 48.4785C160.99 46.9551 161.029 45.2363 161.068 43.3223C161.076 42.9626 161.083 42.5957 161.09 42.2215C161.091 42.2107 161.091 42.1999 161.091 42.1891C161.119 40.7415 161.148 39.1859 161.176 37.522C161.179 37.3376 161.182 37.1519 161.186 36.9648C161.191 36.7357 161.197 36.5045 161.203 36.2711C161.249 34.3712 161.296 32.3292 161.343 30.1448C161.346 30.0047 161.349 29.8639 161.352 29.7226C161.353 29.6712 161.354 29.6198 161.355 29.5683C161.357 29.4658 161.359 29.3629 161.361 29.2598L155.297 29.4941C155.296 29.5313 155.296 29.5684 155.296 29.6055C155.264 32.1787 155.229 34.5819 155.192 36.815C155.192 36.8314 155.191 36.8477 155.191 36.8641C155.16 38.7251 155.127 40.4676 155.092 42.0918C155.086 42.4672 155.08 42.8366 155.074 43.1999C155.054 44.4413 155.035 45.6125 155.017 46.7136C155.008 47.2688 155 47.8062 154.992 48.3257C154.991 48.3509 154.991 48.376 154.99 48.4011C154.974 49.4242 154.959 50.3778 154.945 51.2617ZM113.9 32.2187C113.8 32.0212 113.693 31.8254 113.578 31.6317ZM115.061 35.8196C114.854 34.6405 114.501 33.4029 113.903 32.2231ZM115.071 35.8775C115.23 36.8071 115.3 37.6991 115.329 38.496L115.332 38.5701L115.333 38.6443C115.345 39.3914 115.36 40.2574 115.378 41.2431M115.378 41.2514C115.391 41.918 115.405 42.6392 115.42 43.4153L115.421 43.4448L115.421 43.4743C115.437 44.8216 115.453 46.4521 115.469 48.3645" fill="#182A34"/>
</svg>
